<svg id="svg" version="1.1" xmlns="http://www.w3.org/2000/svg" xmlns:xlink="http://www.w3.org/1999/xlink" width="400" height="285.7142857142857" viewBox="0, 0, 400,285.7142857142857"><g id="svgg"><path id="path0" d="M197.905 38.561 C 189.389 40.736,181.895 53.677,176.390 75.718 C 175.874 77.780,175.415 79.506,175.368 79.552 C 175.322 79.599,174.438 79.089,173.404 78.418 C 159.670 69.513,146.583 63.908,137.511 63.045 C 117.440 61.135,118.245 82.689,139.451 114.965 L 141.712 118.407 145.094 117.684 C 151.097 116.400,163.927 114.401,169.613 113.863 C 170.327 113.795,170.363 113.654,170.760 109.333 C 171.626 99.912,174.832 79.810,175.468 79.810 C 176.560 79.810,199.798 97.280,199.577 97.934 C 199.548 98.020,198.110 99.345,196.381 100.879 C 192.961 103.913,186.135 110.282,184.762 111.719 L 183.905 112.616 186.381 112.491 C 193.446 112.134,198.633 112.009,206.615 112.005 L 215.420 112.000 213.853 110.505 C 211.453 108.217,206.736 103.968,203.143 100.860 C 201.362 99.320,199.881 97.998,199.853 97.922 C 199.581 97.201,223.864 78.443,224.381 78.976 C 225.312 79.937,230.147 112.012,229.463 112.695 C 229.399 112.760,227.608 112.717,225.483 112.601 C 223.358 112.484,220.290 112.332,218.667 112.262 L 215.714 112.135 220.594 116.972 C 223.278 119.633,226.609 123.004,227.996 124.464 L 230.518 127.119 230.390 125.036 C 230.100 120.286,229.706 114.697,229.597 113.762 C 229.533 113.212,229.554 112.762,229.645 112.763 C 230.266 112.768,239.405 113.604,242.286 113.919 C 248.130 114.558,257.916 115.962,260.145 116.480 C 261.128 116.708,269.742 102.675,273.804 94.227 C 291.865 56.667,270.600 48.332,228.116 76.320 C 226.137 77.623,224.454 78.620,224.375 78.535 C 224.296 78.450,224.090 77.738,223.916 76.952 C 218.435 52.080,207.597 36.085,197.905 38.561 M201.060 41.350 C 207.842 42.594,214.805 54.283,219.898 72.978 C 221.197 77.749,221.214 77.340,219.682 78.430 C 214.359 82.215,207.677 87.371,202.502 91.687 C 200.289 93.532,199.706 93.931,199.454 93.774 C 199.283 93.667,197.771 92.478,196.095 91.133 C 192.356 88.131,185.868 83.282,181.838 80.477 L 178.828 78.382 178.949 77.574 C 179.155 76.200,181.100 69.280,182.273 65.743 C 187.332 50.500,193.311 42.122,199.822 41.159 C 199.881 41.150,200.439 41.236,201.060 41.350 M272.235 63.198 C 281.030 66.409,278.444 81.662,265.365 103.714 C 261.500 110.231,259.291 113.392,258.686 113.271 C 254.162 112.366,235.556 110.095,232.666 110.095 C 232.285 110.095,232.244 109.944,232.023 107.762 C 231.280 100.416,229.821 90.600,228.487 83.970 C 228.114 82.120,227.810 80.467,227.810 80.297 C 227.810 79.941,231.026 77.790,236.000 74.820 C 247.424 67.999,256.271 64.297,264.762 62.784 C 266.178 62.532,271.168 62.808,272.235 63.198 M140.952 66.470 C 148.730 68.142,164.607 75.551,171.694 80.814 C 172.045 81.075,172.036 81.177,171.362 84.684 C 169.979 91.880,168.820 99.735,167.998 107.489 C 167.787 109.484,167.594 111.128,167.569 111.144 C 167.544 111.159,165.638 111.406,163.333 111.694 C 158.712 112.271,149.375 113.797,145.810 114.558 C 144.552 114.826,143.395 115.046,143.238 115.046 C 142.505 115.048,135.056 102.524,132.079 96.286 C 121.364 73.833,124.602 62.954,140.952 66.470 M202.672 104.315 C 206.754 107.885,207.895 108.931,207.800 109.019 C 207.753 109.063,204.080 109.135,199.638 109.181 L 191.561 109.263 192.877 108.012 C 195.591 105.434,199.531 101.922,199.719 101.914 C 199.827 101.909,201.155 102.989,202.672 104.315 M179.905 112.968 C 175.829 113.296,171.124 113.728,170.745 113.810 C 170.372 113.891,170.334 114.096,170.125 117.091 C 169.718 122.930,169.490 127.077,169.571 127.159 C 169.616 127.203,170.621 126.189,171.806 124.905 C 172.991 123.622,176.098 120.364,178.711 117.667 L 183.461 112.762 182.635 112.789 C 182.181 112.803,180.952 112.884,179.905 112.968 M226.129 115.549 L 226.829 115.664 226.957 117.030 C 227.188 119.492,227.192 119.492,225.051 117.340 L 223.150 115.429 224.289 115.431 C 224.916 115.432,225.744 115.485,226.129 115.549 M175.810 116.338 C 175.810 116.419,175.167 117.124,174.381 117.905 L 172.952 119.324 172.955 118.281 C 172.959 116.510,173.027 116.409,174.258 116.331 C 174.849 116.293,175.440 116.246,175.571 116.226 C 175.702 116.207,175.810 116.257,175.810 116.338 M257.851 120.458 C 253.657 126.286,247.115 134.561,242.777 139.524 L 242.111 140.286 241.294 139.334 C 236.974 134.304,230.946 127.593,230.630 127.461 C 230.547 127.426,230.536 127.680,230.605 128.026 C 230.674 128.371,230.738 134.035,230.746 140.612 C 230.755 147.189,230.813 152.549,230.875 152.523 C 231.096 152.431,235.521 147.657,238.731 144.048 C 240.524 142.031,242.048 140.381,242.117 140.381 C 242.273 140.381,246.204 145.195,249.271 149.143 C 252.910 153.827,256.183 158.384,259.666 163.619 C 263.389 169.215,262.803 168.683,264.803 168.285 C 298.704 161.528,316.203 148.993,308.380 137.071 C 302.901 128.722,284.382 120.748,261.112 116.719 C 260.643 116.637,260.401 116.915,257.851 120.458 M138.107 119.349 C 90.034 131.597,88.708 152.949,135.234 165.606 C 139.875 166.868,139.452 166.840,139.967 165.923 C 142.247 161.867,150.032 150.884,155.946 143.382 C 157.433 141.496,158.256 140.297,158.166 140.150 C 158.086 140.022,156.894 138.543,155.516 136.863 C 151.889 132.444,148.034 127.407,144.632 122.643 C 142.996 120.351,141.606 118.482,141.543 118.489 C 141.480 118.497,139.934 118.883,138.107 119.349 M264.667 120.386 C 288.487 125.047,305.740 133.715,307.215 141.762 C 308.694 149.831,293.680 158.745,269.143 164.365 C 267.310 164.785,265.467 165.177,265.048 165.235 L 264.286 165.342 262.453 162.528 C 258.940 157.134,253.517 149.705,248.881 143.934 C 247.547 142.274,246.361 140.763,246.244 140.576 C 246.064 140.287,246.373 139.829,248.316 137.499 C 252.362 132.650,257.177 126.438,260.741 121.469 C 261.598 120.273,262.031 119.821,262.256 119.885 C 262.430 119.935,263.514 120.160,264.667 120.386 M142.027 124.048 C 144.748 127.850,148.509 132.811,151.510 136.554 C 153.056 138.483,154.359 140.159,154.405 140.279 C 154.451 140.400,153.661 141.556,152.649 142.850 C 148.161 148.589,143.263 155.397,139.968 160.476 C 138.948 162.048,138.045 163.322,137.962 163.308 C 137.145 163.173,131.307 161.480,128.847 160.666 C 114.184 155.812,105.147 149.658,104.219 143.894 C 103.037 136.558,115.204 128.517,135.905 122.953 C 139.352 122.027,140.113 121.816,140.322 121.729 C 140.342 121.721,141.109 122.764,142.027 124.048 M197.619 123.246 C 184.677 125.262,178.694 140.493,186.829 150.713 C 194.542 160.404,209.986 158.678,215.362 147.524 C 221.253 135.302,210.926 121.173,197.619 123.246 M166.058 131.381 C 162.887 134.998,160.704 137.561,159.164 139.471 L 158.438 140.371 161.053 143.376 C 162.491 145.029,164.878 147.719,166.357 149.355 L 169.048 152.328 169.166 140.186 C 169.231 133.507,169.343 127.948,169.415 127.831 C 169.852 127.125,168.981 128.045,166.058 131.381 M236.774 138.595 C 237.501 139.446,238.095 140.203,238.095 140.279 C 238.095 140.483,234.058 144.952,233.874 144.952 C 233.786 144.952,233.718 142.745,233.723 140.048 L 233.731 135.143 234.592 136.095 C 235.066 136.619,236.048 137.744,236.774 138.595 M166.286 140.095 C 166.286 142.557,166.214 144.571,166.126 144.571 C 165.638 144.571,162.291 140.342,162.523 140.019 C 162.857 139.552,166.177 135.619,166.237 135.619 C 166.264 135.619,166.286 137.633,166.286 140.095 M169.414 156.000 C 169.542 159.212,169.951 166.390,170.216 170.051 C 170.366 172.135,169.878 171.879,174.476 172.278 C 181.681 172.903,189.866 173.435,190.014 173.288 C 190.055 173.247,188.776 172.002,187.172 170.521 C 183.623 167.247,175.478 159.197,171.903 155.429 L 169.282 152.667 169.414 156.000 M228.266 155.367 C 225.541 158.270,217.511 166.013,212.664 170.411 C 210.733 172.164,209.182 173.626,209.217 173.661 C 209.316 173.760,221.154 173.368,225.483 173.122 C 227.608 173.001,229.400 172.956,229.465 173.021 C 229.966 173.521,226.168 200.952,225.598 200.952 C 225.460 200.952,220.475 197.598,217.805 195.709 C 213.179 192.435,206.508 187.302,201.644 183.272 C 199.383 181.399,199.988 181.350,197.143 183.639 C 190.966 188.607,178.126 197.771,174.487 199.807 C 173.832 200.174,176.851 212.818,179.513 220.857 C 191.227 256.228,208.778 256.228,220.486 220.857 C 222.281 215.436,224.187 208.211,225.248 202.810 C 225.644 200.798,225.339 200.804,228.440 202.749 C 264.118 225.137,284.125 220.747,274.734 192.590 C 272.564 186.083,267.231 175.282,263.085 168.996 C 262.959 168.806,261.861 168.935,257.891 169.609 C 252.380 170.545,247.708 171.199,242.286 171.794 C 237.849 172.281,229.682 172.984,229.585 172.887 C 229.545 172.846,229.599 171.880,229.705 170.740 C 230.110 166.392,230.805 152.952,230.624 152.952 C 230.574 152.952,229.513 154.039,228.266 155.367 M181.777 169.878 C 181.406 169.956,173.284 169.323,173.152 169.206 C 173.051 169.116,172.598 162.861,172.582 161.335 L 172.571 160.289 177.337 165.049 C 180.704 168.413,182.007 169.830,181.777 169.878 M227.158 165.742 C 226.996 168.063,226.824 170.001,226.777 170.049 C 226.696 170.129,223.112 170.347,218.810 170.533 C 216.554 170.631,216.526 170.803,219.157 168.381 C 220.352 167.281,222.681 165.029,224.332 163.376 C 227.882 159.822,227.588 159.576,227.158 165.742 M138.515 168.429 C 113.086 211.490,128.389 226.917,171.398 201.578 C 173.789 200.169,174.116 199.917,174.028 199.556 C 173.298 196.576,171.341 182.691,170.760 176.381 C 170.363 172.060,170.327 171.919,169.613 171.851 C 162.398 171.161,150.303 169.208,142.709 167.509 C 141.109 167.150,139.719 166.857,139.621 166.857 C 139.523 166.857,139.026 167.564,138.515 168.429 M145.238 171.033 C 149.971 172.019,158.082 173.357,163.333 174.017 C 165.638 174.307,167.545 174.557,167.571 174.573 C 167.596 174.589,167.749 175.880,167.910 177.444 C 168.408 182.277,169.316 189.101,170.091 193.834 C 170.499 196.324,170.794 198.424,170.746 198.502 C 170.566 198.792,165.104 201.859,161.619 203.625 C 145.836 211.623,134.343 213.096,130.576 207.603 C 127.051 202.463,129.958 189.969,138.169 174.966 C 140.659 170.416,140.897 170.052,141.294 170.177 C 141.473 170.233,143.248 170.618,145.238 171.033 M263.202 174.857 C 272.770 191.143,276.447 205.319,272.567 210.959 C 268.635 216.674,255.539 214.505,238.667 205.344 C 235.817 203.796,229.200 199.865,229.057 199.635 C 229.007 199.554,229.345 197.206,229.809 194.418 C 230.629 189.482,231.548 182.650,232.021 177.974 L 232.254 175.663 233.794 175.539 C 240.922 174.967,250.998 173.731,257.143 172.675 C 259.186 172.324,261.020 172.050,261.218 172.066 C 261.469 172.086,262.074 172.936,263.202 174.857 M191.619 174.517 C 192.300 175.147,194.381 176.988,196.243 178.610 L 199.628 181.559 201.005 180.449 C 201.762 179.839,203.831 178.095,205.603 176.574 L 208.826 173.810 200.080 173.678 C 195.269 173.606,191.119 173.508,190.857 173.460 C 190.474 173.390,190.623 173.596,191.619 174.517 M200.399 177.141 C 199.703 177.737,199.447 177.710,198.778 176.970 L 198.417 176.571 199.732 176.579 L 201.048 176.587 200.399 177.141 M202.928 188.084 C 208.156 192.305,214.458 196.996,219.952 200.757 C 221.275 201.662,222.285 202.483,222.284 202.653 C 222.279 203.952,219.349 215.080,217.717 220.000 C 211.163 239.759,202.903 248.149,195.315 242.753 C 188.631 238.000,180.177 218.622,177.603 202.154 L 177.479 201.355 180.025 199.699 C 184.823 196.579,191.583 191.705,197.142 187.357 C 198.431 186.349,199.547 185.524,199.621 185.524 C 199.696 185.524,201.184 186.676,202.928 188.084 " stroke="none" fill="#fafbfb" fill-rule="evenodd"></path><path id="path1" d="M265.952 59.750 C 266.136 59.798,266.436 59.798,266.619 59.750 C 266.802 59.702,266.652 59.663,266.286 59.663 C 265.919 59.663,265.769 59.702,265.952 59.750 M136.619 62.988 C 136.802 63.036,137.102 63.036,137.286 62.988 C 137.469 62.941,137.319 62.901,136.952 62.901 C 136.586 62.901,136.436 62.941,136.619 62.988 M191.512 105.190 L 190.952 105.810 191.571 105.250 C 191.912 104.942,192.190 104.664,192.190 104.631 C 192.190 104.484,192.033 104.613,191.512 105.190 M188.561 107.952 L 187.905 108.667 188.619 108.010 C 189.284 107.399,189.421 107.238,189.275 107.238 C 189.244 107.238,188.922 107.560,188.561 107.952 M207.312 108.520 L 207.671 108.945 203.502 109.000 L 199.333 109.055 203.571 109.099 C 207.880 109.144,208.139 109.100,207.381 108.458 L 206.952 108.095 207.312 108.520 M192.908 109.281 C 193.251 109.323,193.765 109.322,194.051 109.279 C 194.337 109.235,194.057 109.201,193.429 109.202 C 192.800 109.203,192.566 109.239,192.908 109.281 M214.286 110.952 C 214.641 111.319,214.975 111.619,215.027 111.619 C 215.079 111.619,214.832 111.319,214.476 110.952 C 214.121 110.586,213.787 110.286,213.735 110.286 C 213.682 110.286,213.930 110.586,214.286 110.952 M184.321 111.963 C 183.677 112.635,183.679 112.768,184.333 112.736 C 184.812 112.712,184.818 112.703,184.408 112.625 L 183.959 112.540 184.491 111.984 C 184.784 111.679,184.981 111.429,184.928 111.429 C 184.876 111.429,184.603 111.669,184.321 111.963 M197.006 112.140 C 197.507 112.180,198.278 112.179,198.720 112.139 C 199.162 112.099,198.752 112.067,197.810 112.068 C 196.867 112.068,196.505 112.101,197.006 112.140 M212.714 112.140 C 213.264 112.179,214.164 112.179,214.714 112.140 C 215.264 112.102,214.814 112.070,213.714 112.070 C 212.614 112.070,212.164 112.102,212.714 112.140 M191.098 112.327 C 191.387 112.371,191.816 112.370,192.050 112.325 C 192.285 112.279,192.048 112.244,191.524 112.245 C 191.000 112.246,190.808 112.283,191.098 112.327 M219.479 112.327 C 219.768 112.371,220.197 112.370,220.431 112.325 C 220.665 112.279,220.429 112.244,219.905 112.245 C 219.381 112.246,219.189 112.283,219.479 112.327 M187.193 112.516 C 187.430 112.561,187.772 112.559,187.955 112.512 C 188.137 112.464,187.943 112.427,187.524 112.429 C 187.105 112.431,186.956 112.470,187.193 112.516 M223.764 112.516 C 224.001 112.561,224.344 112.559,224.526 112.512 C 224.708 112.464,224.514 112.427,224.095 112.429 C 223.676 112.431,223.527 112.470,223.764 112.516 M180.574 115.714 L 177.625 118.762 180.661 115.769 C 182.331 114.124,183.659 112.752,183.611 112.722 C 183.563 112.691,182.197 114.038,180.574 115.714 M227.095 112.703 C 227.279 112.751,227.579 112.751,227.762 112.703 C 227.945 112.655,227.795 112.616,227.429 112.616 C 227.062 112.616,226.912 112.655,227.095 112.703 M180.810 112.893 C 180.993 112.941,181.293 112.941,181.476 112.893 C 181.660 112.845,181.510 112.806,181.143 112.806 C 180.776 112.806,180.626 112.845,180.810 112.893 M229.552 113.381 C 229.578 113.940,229.588 113.950,229.659 113.488 C 229.718 113.104,229.866 112.956,230.250 112.897 C 230.712 112.827,230.702 112.816,230.143 112.790 C 229.560 112.764,229.525 112.798,229.552 113.381 M170.231 113.524 C 170.168 113.762,170.225 113.905,170.381 113.905 C 170.537 113.905,170.594 113.762,170.531 113.524 C 170.477 113.314,170.409 113.143,170.381 113.143 C 170.353 113.143,170.285 113.314,170.231 113.524 M221.619 118.095 C 223.607 120.086,225.277 121.714,225.330 121.714 C 225.382 121.714,223.798 120.086,221.810 118.095 C 219.821 116.105,218.151 114.476,218.099 114.476 C 218.047 114.476,219.631 116.105,221.619 118.095 M225.048 117.333 C 226.091 118.381,226.988 119.238,227.040 119.238 C 227.093 119.238,226.282 118.381,225.238 117.333 C 224.194 116.286,223.298 115.429,223.245 115.429 C 223.193 115.429,224.004 116.286,225.048 117.333 M224.907 115.563 C 225.144 115.609,225.487 115.607,225.669 115.559 C 225.851 115.512,225.657 115.474,225.238 115.477 C 224.819 115.479,224.670 115.518,224.907 115.563 M175.389 116.319 C 175.590 116.400,175.590 116.476,175.389 116.733 C 175.169 117.014,175.178 117.020,175.476 116.786 C 175.660 116.642,175.810 116.450,175.810 116.358 C 175.810 116.266,175.660 116.197,175.476 116.206 C 175.264 116.215,175.232 116.256,175.389 116.319 M169.949 118.286 C 169.949 118.652,169.988 118.802,170.036 118.619 C 170.084 118.436,170.084 118.136,170.036 117.952 C 169.988 117.769,169.949 117.919,169.949 118.286 M229.949 118.286 C 229.949 118.652,229.988 118.802,230.036 118.619 C 230.084 118.436,230.084 118.136,230.036 117.952 C 229.988 117.769,229.949 117.919,229.949 118.286 M169.758 121.143 C 169.758 121.510,169.798 121.660,169.846 121.476 C 169.893 121.293,169.893 120.993,169.846 120.810 C 169.798 120.626,169.758 120.776,169.758 121.143 M230.139 121.143 C 230.139 121.510,230.179 121.660,230.227 121.476 C 230.274 121.293,230.274 120.993,230.227 120.810 C 230.179 120.626,230.139 120.776,230.139 121.143 M174.275 122.238 L 173.619 122.952 174.333 122.296 C 174.726 121.935,175.048 121.614,175.048 121.582 C 175.048 121.436,174.886 121.573,174.275 122.238 M169.572 124.476 C 169.574 124.895,169.613 125.044,169.659 124.807 C 169.704 124.570,169.702 124.228,169.655 124.045 C 169.607 123.863,169.570 124.057,169.572 124.476 M230.334 124.476 C 230.336 124.895,230.375 125.044,230.420 124.807 C 230.466 124.570,230.464 124.228,230.417 124.045 C 230.369 123.863,230.332 124.057,230.334 124.476 M228.762 125.429 C 229.117 125.795,229.451 126.095,229.503 126.095 C 229.556 126.095,229.308 125.795,228.952 125.429 C 228.597 125.062,228.263 124.762,228.211 124.762 C 228.159 124.762,228.407 125.062,228.762 125.429 M169.330 128.723 L 169.422 129.810 169.485 128.878 C 169.519 128.366,169.477 127.877,169.392 127.792 C 169.308 127.707,169.280 128.126,169.330 128.723 M230.533 128.762 C 230.533 129.338,230.569 129.574,230.613 129.286 C 230.656 128.998,230.656 128.526,230.613 128.238 C 230.569 127.950,230.533 128.186,230.533 128.762 M231.048 127.869 C 231.048 127.902,231.326 128.180,231.667 128.488 L 232.286 129.048 231.726 128.429 C 231.205 127.852,231.048 127.722,231.048 127.869 M169.210 134.952 C 169.210 135.895,169.242 136.305,169.282 135.863 C 169.322 135.421,169.322 134.649,169.283 134.149 C 169.244 133.648,169.211 134.010,169.210 134.952 M230.733 135.048 C 230.733 135.938,230.766 136.302,230.806 135.857 C 230.846 135.412,230.846 134.683,230.806 134.238 C 230.766 133.793,230.733 134.157,230.733 135.048 M166.176 140.762 C 166.176 142.910,166.203 143.788,166.237 142.714 C 166.271 141.640,166.271 139.883,166.237 138.810 C 166.203 137.736,166.176 138.614,166.176 140.762 M233.795 140.952 C 233.795 143.205,233.823 144.126,233.856 143.000 C 233.890 141.874,233.890 140.031,233.856 138.905 C 233.823 137.779,233.795 138.700,233.795 140.952 M169.210 150.952 C 169.210 151.895,169.242 152.305,169.282 151.863 C 169.322 151.421,169.322 150.649,169.283 150.149 C 169.244 149.648,169.211 150.010,169.210 150.952 M230.733 150.857 C 230.733 151.748,230.766 152.112,230.806 151.667 C 230.846 151.221,230.846 150.493,230.806 150.048 C 230.766 149.602,230.733 149.967,230.733 150.857 M232.086 151.286 L 231.333 152.095 232.143 151.342 C 232.896 150.642,233.040 150.476,232.896 150.476 C 232.865 150.476,232.500 150.840,232.086 151.286 M171.048 154.571 C 171.403 154.938,171.737 155.238,171.789 155.238 C 171.841 155.238,171.593 154.938,171.238 154.571 C 170.883 154.205,170.549 153.905,170.497 153.905 C 170.444 153.905,170.692 154.205,171.048 154.571 M224.950 158.619 L 221.429 162.190 225.000 158.669 C 228.318 155.396,228.657 155.048,228.522 155.048 C 228.495 155.048,226.887 156.655,224.950 158.619 M169.388 157.048 C 169.389 157.571,169.426 157.763,169.470 157.474 C 169.514 157.184,169.513 156.755,169.467 156.521 C 169.422 156.287,169.386 156.524,169.388 157.048 M230.533 157.143 C 230.533 157.719,230.569 157.955,230.613 157.667 C 230.656 157.379,230.656 156.907,230.613 156.619 C 230.569 156.331,230.533 156.567,230.533 157.143 M178.190 161.905 C 180.179 163.895,181.849 165.524,181.901 165.524 C 181.953 165.524,180.369 163.895,178.381 161.905 C 176.393 159.914,174.723 158.286,174.670 158.286 C 174.618 158.286,176.202 159.914,178.190 161.905 M176.286 164.190 C 178.379 166.286,180.135 168.000,180.187 168.000 C 180.239 168.000,178.569 166.286,176.476 164.190 C 174.383 162.095,172.627 160.381,172.575 160.381 C 172.523 160.381,174.192 162.095,176.286 164.190 M225.140 162.619 L 222.952 164.857 225.190 162.670 C 226.421 161.467,227.429 160.460,227.429 160.432 C 227.429 160.295,227.172 160.540,225.140 162.619 M169.572 161.238 C 169.574 161.657,169.613 161.806,169.659 161.569 C 169.704 161.332,169.702 160.989,169.655 160.807 C 169.607 160.625,169.570 160.819,169.572 161.238 M230.334 161.238 C 230.336 161.657,230.375 161.806,230.420 161.569 C 230.466 161.332,230.464 160.989,230.417 160.807 C 230.369 160.625,230.332 160.819,230.334 161.238 M172.619 162.381 C 172.622 162.800,172.661 162.949,172.706 162.712 C 172.752 162.475,172.750 162.132,172.702 161.950 C 172.655 161.768,172.617 161.962,172.619 162.381 M227.282 162.476 C 227.282 162.843,227.321 162.993,227.369 162.810 C 227.417 162.626,227.417 162.326,227.369 162.143 C 227.321 161.960,227.282 162.110,227.282 162.476 M169.758 164.571 C 169.758 164.938,169.798 165.088,169.846 164.905 C 169.893 164.721,169.893 164.421,169.846 164.238 C 169.798 164.055,169.758 164.205,169.758 164.571 M230.139 164.571 C 230.139 164.938,230.179 165.088,230.227 164.905 C 230.274 164.721,230.274 164.421,230.227 164.238 C 230.179 164.055,230.139 164.205,230.139 164.571 M217.801 165.571 L 217.048 166.381 217.857 165.628 C 218.610 164.928,218.754 164.762,218.610 164.762 C 218.579 164.762,218.215 165.126,217.801 165.571 M219.418 168.143 L 218.762 168.857 219.476 168.201 C 220.141 167.590,220.278 167.429,220.133 167.429 C 220.101 167.429,219.779 167.750,219.418 168.143 M185.333 168.857 C 185.689 169.224,186.022 169.524,186.075 169.524 C 186.127 169.524,185.879 169.224,185.524 168.857 C 185.168 168.490,184.835 168.190,184.782 168.190 C 184.730 168.190,184.978 168.490,185.333 168.857 M224.907 170.230 C 225.144 170.276,225.487 170.274,225.669 170.226 C 225.851 170.178,225.657 170.141,225.238 170.143 C 224.819 170.145,224.670 170.184,224.907 170.230 M221.095 170.420 C 221.331 170.466,221.717 170.466,221.952 170.420 C 222.188 170.375,221.995 170.338,221.524 170.338 C 221.052 170.338,220.860 170.375,221.095 170.420 M170.231 172.190 C 170.285 172.400,170.353 172.571,170.381 172.571 C 170.409 172.571,170.477 172.400,170.531 172.190 C 170.594 171.952,170.537 171.810,170.381 171.810 C 170.225 171.810,170.168 171.952,170.231 172.190 M229.552 172.333 C 229.525 172.916,229.560 172.951,230.143 172.924 C 230.702 172.898,230.712 172.888,230.250 172.817 C 229.866 172.759,229.718 172.610,229.659 172.227 C 229.588 171.764,229.578 171.774,229.552 172.333 M183.667 173.084 C 183.850 173.132,184.150 173.132,184.333 173.084 C 184.517 173.036,184.367 172.997,184.000 172.997 C 183.633 172.997,183.483 173.036,183.667 173.084 M227.095 173.084 C 227.279 173.132,227.579 173.132,227.762 173.084 C 227.945 173.036,227.795 172.997,227.429 172.997 C 227.062 172.997,226.912 173.036,227.095 173.084 M187.002 173.278 C 187.239 173.323,187.582 173.321,187.764 173.274 C 187.946 173.226,187.752 173.189,187.333 173.191 C 186.914 173.193,186.765 173.232,187.002 173.278 M223.764 173.278 C 224.001 173.323,224.344 173.321,224.526 173.274 C 224.708 173.226,224.514 173.189,224.095 173.191 C 223.676 173.193,223.527 173.232,223.764 173.278 M190.601 173.747 C 190.973 174.158,191.198 174.220,190.866 173.821 C 190.674 173.589,190.783 173.534,191.557 173.468 C 192.424 173.395,192.414 173.391,191.381 173.394 C 190.332 173.398,190.299 173.413,190.601 173.747 M219.476 173.470 C 219.764 173.513,220.236 173.513,220.524 173.470 C 220.812 173.426,220.576 173.390,220.000 173.390 C 219.424 173.390,219.188 173.426,219.476 173.470 M197.000 173.664 C 197.498 173.703,198.312 173.703,198.810 173.664 C 199.307 173.625,198.900 173.592,197.905 173.592 C 196.910 173.592,196.502 173.625,197.000 173.664 M212.905 173.663 C 213.350 173.703,214.079 173.703,214.524 173.663 C 214.969 173.623,214.605 173.590,213.714 173.590 C 212.824 173.590,212.460 173.623,212.905 173.663 M199.762 176.706 C 199.998 176.751,200.383 176.751,200.619 176.706 C 200.855 176.660,200.662 176.623,200.190 176.623 C 199.719 176.623,199.526 176.660,199.762 176.706 M139.857 213.846 C 140.040 213.893,140.340 213.893,140.524 213.846 C 140.707 213.798,140.557 213.758,140.190 213.758 C 139.824 213.758,139.674 213.798,139.857 213.846 M262.714 217.084 C 262.898 217.132,263.198 217.132,263.381 217.084 C 263.564 217.036,263.414 216.997,263.048 216.997 C 262.681 216.997,262.531 217.036,262.714 217.084 " stroke="none" fill="#b1d5d4" fill-rule="evenodd"></path><path id="path2" d="M193.333 44.667 C 192.871 45.138,192.535 45.524,192.587 45.524 C 192.640 45.524,193.061 45.138,193.524 44.667 C 193.986 44.195,194.322 43.810,194.270 43.810 C 194.217 43.810,193.796 44.195,193.333 44.667 M206.468 44.619 C 207.258 45.460,207.429 45.611,207.429 45.468 C 207.429 45.438,207.021 45.031,206.524 44.563 L 205.619 43.714 206.468 44.619 M198.145 109.089 C 198.435 109.133,198.864 109.132,199.098 109.086 C 199.332 109.041,199.095 109.005,198.571 109.007 C 198.048 109.008,197.856 109.045,198.145 109.089 M185.714 110.571 C 185.252 111.043,184.916 111.429,184.968 111.429 C 185.021 111.429,185.442 111.043,185.905 110.571 C 186.367 110.100,186.703 109.714,186.651 109.714 C 186.598 109.714,186.177 110.100,185.714 110.571 M200.148 112.140 C 200.596 112.180,201.282 112.179,201.672 112.138 C 202.062 112.098,201.695 112.065,200.857 112.065 C 200.019 112.066,199.700 112.099,200.148 112.140 M209.762 112.139 C 210.155 112.180,210.798 112.180,211.190 112.139 C 211.583 112.098,211.262 112.064,210.476 112.064 C 209.690 112.064,209.369 112.098,209.762 112.139 M215.619 112.161 C 215.619 112.249,215.812 112.485,216.048 112.685 L 216.476 113.048 216.127 112.634 C 215.785 112.229,215.787 112.219,216.222 112.136 C 216.623 112.060,216.615 112.049,216.143 112.026 C 215.855 112.012,215.619 112.072,215.619 112.161 M192.619 112.322 C 192.802 112.370,193.102 112.370,193.286 112.322 C 193.469 112.274,193.319 112.235,192.952 112.235 C 192.586 112.235,192.436 112.274,192.619 112.322 M174.372 117.762 L 173.619 118.571 174.429 117.818 C 175.181 117.118,175.326 116.952,175.182 116.952 C 175.150 116.952,174.786 117.317,174.372 117.762 M175.512 121.000 L 174.952 121.619 175.571 121.060 C 175.912 120.752,176.190 120.473,176.190 120.441 C 176.190 120.293,176.033 120.423,175.512 121.000 M227.429 124.095 C 227.784 124.462,228.118 124.762,228.170 124.762 C 228.222 124.762,227.974 124.462,227.619 124.095 C 227.264 123.729,226.930 123.429,226.878 123.429 C 226.825 123.429,227.073 123.729,227.429 124.095 M233.746 136.143 C 233.776 136.978,233.784 136.992,233.853 136.329 C 233.905 135.838,234.000 135.654,234.155 135.747 C 234.286 135.826,234.272 135.748,234.120 135.560 C 233.741 135.094,233.711 135.141,233.746 136.143 M107.429 136.286 C 106.966 136.757,106.630 137.143,106.683 137.143 C 106.735 137.143,107.156 136.757,107.619 136.286 C 108.082 135.814,108.417 135.429,108.365 135.429 C 108.313 135.429,107.891 135.814,107.429 136.286 M303.810 136.286 C 304.165 136.652,304.499 136.952,304.551 136.952 C 304.603 136.952,304.355 136.652,304.000 136.286 C 303.645 135.919,303.311 135.619,303.259 135.619 C 303.206 135.619,303.454 135.919,303.810 136.286 M166.139 136.381 C 166.139 136.748,166.179 136.898,166.227 136.714 C 166.274 136.531,166.274 136.231,166.227 136.048 C 166.179 135.864,166.139 136.014,166.139 136.381 M169.209 138.095 C 169.209 138.986,169.242 139.350,169.282 138.905 C 169.322 138.460,169.322 137.731,169.282 137.286 C 169.242 136.840,169.209 137.205,169.209 138.095 M230.734 138.190 C 230.734 139.133,230.766 139.543,230.806 139.101 C 230.846 138.659,230.846 137.887,230.807 137.387 C 230.768 136.886,230.735 137.248,230.734 138.190 M169.214 147.333 C 169.215 148.486,169.246 148.933,169.284 148.326 C 169.322 147.720,169.321 146.777,169.283 146.231 C 169.245 145.685,169.214 146.181,169.214 147.333 M230.733 147.810 C 230.733 148.700,230.766 149.064,230.806 148.619 C 230.846 148.174,230.846 147.445,230.806 147.000 C 230.766 146.555,230.733 146.919,230.733 147.810 M169.173 153.286 C 169.204 153.994,169.204 153.995,169.281 153.377 C 169.329 152.990,169.436 152.803,169.566 152.883 C 169.690 152.960,169.719 152.923,169.637 152.791 C 169.365 152.352,169.144 152.588,169.173 153.286 M230.363 152.982 C 230.282 153.113,230.310 153.150,230.434 153.074 C 230.559 152.997,230.672 153.155,230.720 153.473 C 230.795 153.967,230.802 153.962,230.829 153.381 C 230.857 152.765,230.622 152.563,230.363 152.982 M171.810 155.298 C 171.810 155.330,172.088 155.609,172.429 155.917 L 173.048 156.476 172.488 155.857 C 171.967 155.280,171.810 155.151,171.810 155.298 M219.228 164.143 L 218.571 164.857 219.286 164.201 C 219.951 163.590,220.088 163.429,219.942 163.429 C 219.910 163.429,219.589 163.750,219.228 164.143 M222.182 165.571 L 221.429 166.381 222.238 165.628 C 222.683 165.214,223.048 164.850,223.048 164.818 C 223.048 164.674,222.882 164.819,222.182 165.571 M183.619 167.107 C 183.619 167.140,183.898 167.419,184.238 167.726 L 184.857 168.286 184.298 167.667 C 183.776 167.090,183.619 166.960,183.619 167.107 M180.857 168.762 C 181.266 169.181,181.644 169.524,181.696 169.524 C 181.749 169.524,181.457 169.181,181.048 168.762 C 180.638 168.343,180.261 168.000,180.208 168.000 C 180.156 168.000,180.448 168.343,180.857 168.762 M189.774 172.885 C 190.040 173.201,190.062 173.317,189.869 173.394 C 189.706 173.459,189.735 173.499,189.952 173.509 C 190.407 173.529,190.371 173.274,189.857 172.839 L 189.429 172.476 189.774 172.885 M192.619 173.465 C 192.802 173.513,193.102 173.513,193.286 173.465 C 193.469 173.417,193.319 173.378,192.952 173.378 C 192.586 173.378,192.436 173.417,192.619 173.465 M200.139 173.661 C 200.477 173.703,201.077 173.704,201.472 173.663 C 201.867 173.622,201.590 173.587,200.857 173.586 C 200.124 173.585,199.800 173.619,200.139 173.661 M215.476 173.655 C 215.660 173.703,215.960 173.703,216.143 173.655 C 216.326 173.607,216.176 173.568,215.810 173.568 C 215.443 173.568,215.293 173.607,215.476 173.655 " stroke="none" fill="#7dc1bf" fill-rule="evenodd"></path><path id="path3" d="M49.924 71.320 C 22.466 110.546,0.000 142.737,0.000 142.857 C 0.000 142.977,22.466 175.169,49.924 214.395 L 99.847 285.714 200.000 285.714 L 300.153 285.714 350.076 214.395 C 377.534 175.169,400.000 142.977,400.000 142.857 C 400.000 142.737,377.534 110.546,350.076 71.320 L 300.153 -0.000 200.000 -0.000 L 99.847 0.000 49.924 71.320 M202.680 38.593 C 210.862 41.020,218.336 54.098,223.623 75.236 C 224.055 76.963,224.438 78.406,224.474 78.442 C 224.510 78.478,225.297 78.000,226.222 77.379 C 277.845 42.745,297.387 61.171,263.445 112.476 C 262.128 114.467,260.989 116.189,260.914 116.303 C 260.821 116.443,261.935 116.742,264.341 117.221 C 313.336 126.978,325.126 146.852,290.350 161.066 C 283.931 163.690,273.580 166.689,265.714 168.204 C 262.903 168.745,262.977 168.519,264.678 171.358 C 285.232 205.656,279.932 224.066,252.192 214.725 C 245.453 212.456,236.280 207.870,228.127 202.694 L 225.733 201.175 225.422 202.635 C 217.824 238.333,205.517 254.319,192.968 244.793 C 185.750 239.314,178.852 223.567,174.680 203.049 C 174.379 201.567,174.096 200.318,174.051 200.273 C 174.006 200.228,172.948 200.803,171.699 201.550 C 129.529 226.776,113.328 212.137,137.224 170.401 C 138.350 168.435,139.242 166.802,139.207 166.773 C 139.172 166.744,138.500 166.569,137.714 166.384 C 122.120 162.716,108.485 156.089,103.779 149.889 C 94.899 138.191,108.148 126.659,139.371 118.910 L 141.503 118.381 139.697 115.619 C 107.157 65.880,123.742 46.883,172.694 77.823 C 174.114 78.721,175.300 79.428,175.329 79.394 C 175.359 79.361,175.782 77.705,176.270 75.714 C 182.674 49.595,192.624 35.609,202.680 38.593 M198.509 41.522 C 192.589 42.923,185.997 53.519,181.338 69.122 C 179.985 73.655,178.841 78.156,179.004 78.311 C 179.080 78.385,180.643 79.492,182.476 80.772 C 186.616 83.663,192.873 88.363,196.745 91.489 L 199.680 93.860 202.364 91.635 C 208.211 86.787,214.951 81.582,219.282 78.571 C 220.747 77.553,220.914 77.377,220.817 76.952 C 215.819 54.940,206.222 39.698,198.509 41.522 M264.753 62.954 C 255.922 64.160,241.711 70.749,227.974 80.007 C 227.891 80.064,228.080 81.350,228.396 82.865 C 229.679 89.023,231.004 97.598,231.896 105.506 C 232.160 107.853,232.411 109.808,232.453 109.850 C 232.495 109.892,234.317 110.091,236.503 110.293 C 243.500 110.940,252.428 112.059,256.952 112.857 C 257.843 113.014,258.725 113.142,258.912 113.143 C 260.082 113.143,269.836 96.178,273.051 88.550 C 280.809 70.138,277.898 61.159,264.753 62.954 M132.634 66.174 C 121.221 68.355,124.602 86.104,141.463 112.513 C 142.532 114.188,143.183 115.036,143.351 114.972 C 144.920 114.370,157.312 112.331,166.714 111.128 C 167.599 111.015,167.619 110.997,167.619 110.348 C 167.619 107.312,170.026 90.560,171.495 83.365 L 171.955 81.112 170.692 80.304 C 155.126 70.350,140.056 64.755,132.634 66.174 M222.381 80.257 C 214.975 85.473,199.863 97.424,200.041 97.923 C 200.071 98.006,201.167 98.989,202.476 100.108 C 205.493 102.686,211.349 107.948,213.728 110.218 L 215.554 111.960 217.158 112.068 C 218.040 112.127,220.905 112.269,223.524 112.383 C 226.143 112.497,228.557 112.637,228.889 112.694 C 229.490 112.798,229.492 112.796,229.412 112.066 C 229.367 111.663,229.158 109.662,228.946 107.619 C 228.030 98.767,226.718 90.259,225.025 82.190 C 224.651 80.410,224.332 78.944,224.316 78.934 C 224.299 78.923,223.429 79.519,222.381 80.257 M175.429 79.899 C 175.429 79.962,175.086 81.690,174.667 83.738 C 173.228 90.767,172.010 98.713,171.165 106.571 C 170.479 112.953,170.419 113.714,170.605 113.714 C 170.697 113.714,171.455 113.631,172.291 113.528 C 173.126 113.426,176.031 113.169,178.747 112.956 L 183.684 112.570 185.890 110.428 C 188.946 107.460,192.717 103.963,196.095 100.962 C 197.667 99.567,199.081 98.302,199.238 98.152 C 199.575 97.830,200.040 98.261,194.743 93.993 C 188.149 88.678,175.429 79.396,175.429 79.899 M195.808 105.498 C 192.904 108.139,192.003 109.060,192.286 109.094 C 192.495 109.120,196.034 109.077,200.149 108.999 L 207.632 108.857 204.244 105.879 C 202.381 104.241,200.599 102.686,200.284 102.425 L 199.712 101.949 195.808 105.498 M197.714 112.188 C 194.100 112.271,189.471 112.436,187.429 112.555 L 183.714 112.770 179.931 116.607 C 177.850 118.717,174.669 122.027,172.862 123.962 L 169.576 127.480 169.444 130.550 C 169.371 132.238,169.313 137.848,169.314 143.017 L 169.316 152.414 170.610 153.865 C 172.724 156.235,183.062 166.543,186.832 170.041 L 190.331 173.287 193.689 173.409 C 195.536 173.477,199.714 173.551,202.973 173.575 L 208.898 173.619 210.400 172.286 C 214.724 168.446,219.927 163.515,224.990 158.459 L 230.646 152.810 230.704 148.358 C 230.736 145.909,230.700 140.189,230.625 135.647 L 230.487 127.388 229.387 126.126 C 228.781 125.432,225.445 122.012,221.972 118.527 L 215.659 112.190 212.353 112.190 C 210.535 112.189,207.976 112.155,206.667 112.113 C 205.357 112.071,201.329 112.105,197.714 112.188 M229.714 113.244 C 229.714 113.405,229.842 115.226,229.998 117.292 C 230.154 119.357,230.356 122.395,230.445 124.042 C 230.635 127.514,230.240 126.756,234.015 130.891 C 235.385 132.391,237.729 135.033,239.225 136.762 C 240.721 138.490,242.009 139.929,242.089 139.960 C 242.242 140.018,248.268 132.833,251.161 129.143 C 254.591 124.768,260.465 116.776,260.337 116.658 C 260.241 116.569,253.240 115.446,249.810 114.969 C 244.444 114.223,232.154 112.957,230.238 112.953 C 229.894 112.953,229.714 113.053,229.714 113.244 M167.429 114.211 C 159.241 115.186,144.269 117.705,142.266 118.446 C 141.696 118.657,147.491 126.687,154.317 135.146 C 156.238 137.527,157.940 139.638,158.100 139.838 C 158.377 140.184,158.445 140.135,159.528 138.815 C 161.018 136.998,165.813 131.418,167.782 129.211 L 169.335 127.469 169.432 126.068 C 169.486 125.297,169.657 122.567,169.813 120.000 C 169.969 117.433,170.147 115.012,170.208 114.619 C 170.337 113.791,170.616 113.832,167.429 114.211 M225.183 117.278 C 226.145 118.245,226.942 119.017,226.954 118.994 C 227.016 118.869,226.747 115.826,226.667 115.750 C 226.614 115.700,225.865 115.628,225.002 115.590 L 223.433 115.521 225.183 117.278 M173.874 116.519 L 173.176 116.592 173.104 117.772 C 173.065 118.421,173.041 118.971,173.050 118.995 C 173.060 119.018,173.662 118.439,174.386 117.709 C 175.841 116.243,175.870 116.308,173.874 116.519 M259.788 123.000 C 256.512 127.544,251.122 134.392,246.700 139.630 L 246.128 140.307 248.423 143.154 C 253.331 149.240,258.286 155.979,262.280 162.000 C 264.059 164.680,264.498 165.228,264.833 165.178 C 272.454 164.049,286.988 159.414,294.286 155.787 C 312.635 146.665,311.206 136.934,290.207 128.006 C 283.565 125.183,265.380 120.000,262.114 120.000 C 262.024 120.000,260.977 121.350,259.788 123.000 M136.952 122.777 C 117.380 128.061,105.792 134.806,104.341 141.759 C 103.062 147.890,112.423 155.092,128.667 160.476 C 131.307 161.351,137.936 163.274,138.016 163.188 C 138.038 163.163,139.460 161.043,141.174 158.476 C 144.738 153.139,148.182 148.361,151.784 143.754 C 153.160 141.994,154.286 140.471,154.286 140.369 C 154.286 140.266,153.229 138.877,151.937 137.282 C 148.648 133.218,145.446 129.031,142.693 125.189 C 141.398 123.383,140.284 121.910,140.217 121.917 C 140.150 121.923,138.681 122.310,136.952 122.777 M203.612 123.332 C 216.849 126.116,221.767 142.695,212.179 152.207 C 201.371 162.929,183.048 155.311,183.048 140.095 C 183.048 129.205,192.993 121.098,203.612 123.332 M233.913 140.197 L 233.920 144.857 234.627 144.077 C 235.015 143.649,235.947 142.617,236.697 141.785 L 238.062 140.273 236.260 138.184 C 235.269 137.035,234.334 135.970,234.182 135.816 C 233.939 135.572,233.906 136.120,233.913 140.197 M164.381 137.966 C 163.490 139.005,162.694 139.973,162.610 140.117 C 162.506 140.297,163.009 141.005,164.229 142.395 L 166.000 144.412 166.054 142.301 C 166.083 141.140,166.083 139.265,166.054 138.133 L 166.000 136.076 164.381 137.966 M155.967 143.571 C 149.250 152.036,139.419 166.186,139.926 166.657 C 140.257 166.964,148.877 168.732,154.762 169.700 C 160.200 170.595,170.065 171.910,170.207 171.759 C 170.230 171.734,170.136 170.256,169.998 168.474 C 169.860 166.692,169.651 163.178,169.533 160.664 C 169.416 158.151,169.271 155.293,169.212 154.312 L 169.104 152.528 167.571 150.883 C 166.728 149.978,164.327 147.288,162.237 144.905 C 160.146 142.521,158.415 140.571,158.391 140.571 C 158.367 140.571,157.276 141.921,155.967 143.571 M238.729 144.238 C 236.935 146.255,234.438 148.999,233.179 150.336 L 230.891 152.768 230.787 154.336 C 230.730 155.199,230.592 157.919,230.481 160.381 C 230.369 162.843,230.144 166.600,229.981 168.731 C 229.818 170.862,229.732 172.652,229.790 172.711 C 230.383 173.304,261.734 169.357,262.530 168.589 C 263.140 167.999,243.165 140.571,242.126 140.571 C 242.052 140.571,240.524 142.221,238.729 144.238 M172.794 162.906 C 172.865 164.189,172.982 166.109,173.054 167.173 L 173.186 169.109 174.450 169.234 C 176.194 169.407,181.800 169.849,181.850 169.818 C 181.872 169.804,179.815 167.718,177.278 165.183 L 172.666 160.574 172.794 162.906 M225.609 162.308 C 224.672 163.257,222.376 165.495,220.507 167.283 L 217.109 170.533 219.174 170.413 C 220.309 170.348,222.461 170.237,223.956 170.168 C 226.515 170.049,226.678 170.018,226.759 169.640 C 226.842 169.252,227.392 160.710,227.339 160.625 C 227.325 160.602,226.547 161.359,225.609 162.308 M140.224 171.571 C 129.682 189.761,126.418 203.945,131.680 208.699 C 136.171 212.757,146.963 210.881,161.524 203.512 C 164.684 201.912,169.160 199.434,170.284 198.661 L 170.708 198.371 170.024 194.185 C 169.146 188.808,168.500 183.998,167.960 178.821 L 167.529 174.690 166.669 174.580 C 157.917 173.465,151.332 172.409,145.154 171.131 C 142.908 170.666,141.048 170.286,141.020 170.286 C 140.992 170.286,140.634 170.864,140.224 171.571 M170.562 173.361 C 171.350 181.927,173.742 199.100,174.218 199.609 C 174.682 200.106,195.415 185.339,199.205 181.811 C 199.411 181.620,199.074 181.244,197.396 179.794 C 196.261 178.813,194.206 177.003,192.829 175.771 L 190.324 173.530 189.019 173.431 C 188.301 173.377,186.171 173.244,184.286 173.136 C 180.515 172.920,172.330 172.258,171.169 172.075 L 170.433 171.959 170.562 173.361 M258.476 172.590 C 253.009 173.572,244.093 174.722,236.598 175.413 C 234.360 175.619,232.495 175.822,232.453 175.864 C 232.411 175.906,232.160 177.861,231.896 180.209 C 231.306 185.450,230.472 191.400,229.714 195.780 C 229.400 197.598,229.143 199.198,229.143 199.336 C 229.143 199.869,236.789 204.324,242.826 207.309 C 256.704 214.171,267.086 215.871,271.492 212.002 C 276.924 207.233,273.535 192.760,262.627 174.143 C 261.313 171.900,261.640 172.022,258.476 172.590 M226.762 173.158 C 223.301 173.407,215.176 173.714,212.058 173.714 L 209.135 173.714 205.853 176.525 C 204.048 178.070,201.960 179.837,201.212 180.450 L 199.853 181.564 200.546 182.184 C 204.401 185.632,215.691 194.187,222.270 198.643 C 225.978 201.155,225.581 201.075,225.881 199.381 C 227.363 190.998,228.143 185.626,228.848 178.952 C 229.114 176.438,229.367 174.060,229.410 173.667 C 229.473 173.090,229.427 172.958,229.172 172.980 C 228.999 172.995,227.914 173.075,226.762 173.158 M199.208 177.146 C 199.545 177.427,199.741 177.472,200.007 177.330 C 200.712 176.952,200.601 176.762,199.678 176.768 L 198.762 176.775 199.208 177.146 M198.667 186.306 C 195.317 189.200,180.903 199.552,177.826 201.274 C 177.564 201.421,177.629 201.889,178.382 205.244 C 184.527 232.644,194.356 247.885,203.095 243.566 C 210.168 240.070,217.315 225.156,221.766 204.606 L 222.233 202.449 220.307 201.156 C 215.202 197.729,208.508 192.745,202.718 188.061 C 199.501 185.458,199.599 185.501,198.667 186.306 " stroke="none" fill="#2cacac" fill-rule="evenodd"></path><path id="path4" d="M187.131 109.190 L 186.571 109.810 187.190 109.250 C 187.531 108.942,187.810 108.664,187.810 108.631 C 187.810 108.484,187.652 108.613,187.131 109.190 M202.714 112.136 C 203.002 112.180,203.474 112.180,203.762 112.136 C 204.050 112.093,203.814 112.057,203.238 112.057 C 202.662 112.057,202.426 112.093,202.714 112.136 M207.860 112.137 C 208.149 112.180,208.578 112.179,208.812 112.134 C 209.046 112.089,208.810 112.053,208.286 112.054 C 207.762 112.056,207.570 112.093,207.860 112.137 M216.952 113.619 C 217.308 113.986,217.641 114.286,217.694 114.286 C 217.746 114.286,217.498 113.986,217.143 113.619 C 216.787 113.252,216.454 112.952,216.401 112.952 C 216.349 112.952,216.597 113.252,216.952 113.619 M176.752 119.762 L 176.095 120.476 176.810 119.820 C 177.202 119.459,177.524 119.137,177.524 119.105 C 177.524 118.960,177.363 119.097,176.752 119.762 M225.714 122.345 C 225.714 122.378,225.993 122.657,226.333 122.964 L 226.952 123.524 226.393 122.905 C 225.871 122.328,225.714 122.198,225.714 122.345 M169.204 140.762 C 169.204 141.443,169.238 141.721,169.281 141.381 C 169.323 141.040,169.323 140.483,169.281 140.143 C 169.238 139.802,169.204 140.081,169.204 140.762 M230.726 140.857 C 230.727 141.486,230.762 141.720,230.805 141.378 C 230.847 141.035,230.846 140.521,230.803 140.235 C 230.759 139.948,230.725 140.229,230.726 140.857 M169.197 144.476 C 169.199 145.000,169.236 145.192,169.280 144.902 C 169.323 144.613,169.322 144.184,169.277 143.950 C 169.232 143.715,169.196 143.952,169.197 144.476 M230.724 145.333 C 230.724 145.910,230.759 146.145,230.803 145.857 C 230.847 145.569,230.847 145.098,230.803 144.810 C 230.759 144.521,230.724 144.757,230.724 145.333 M229.420 153.952 L 228.667 154.762 229.476 154.009 C 229.921 153.595,230.286 153.231,230.286 153.199 C 230.286 153.055,230.120 153.200,229.420 153.952 M173.524 157.048 C 173.879 157.414,174.213 157.714,174.265 157.714 C 174.318 157.714,174.070 157.414,173.714 157.048 C 173.359 156.681,173.025 156.381,172.973 156.381 C 172.921 156.381,173.168 156.681,173.524 157.048 M182.857 166.381 C 183.213 166.748,183.546 167.048,183.599 167.048 C 183.651 167.048,183.403 166.748,183.048 166.381 C 182.692 166.014,182.359 165.714,182.306 165.714 C 182.254 165.714,182.502 166.014,182.857 166.381 M202.615 173.661 C 202.953 173.703,203.553 173.704,203.948 173.663 C 204.343 173.622,204.067 173.587,203.333 173.586 C 202.600 173.585,202.277 173.619,202.615 173.661 M207.669 173.660 C 207.959 173.704,208.387 173.703,208.622 173.658 C 208.856 173.613,208.619 173.577,208.095 173.578 C 207.571 173.580,207.380 173.617,207.669 173.660 " stroke="none" fill="#4db4b1" fill-rule="evenodd"></path></g></svg>