<svg id="svg" version="1.1" xmlns="http://www.w3.org/2000/svg" xmlns:xlink="http://www.w3.org/1999/xlink" width="400" height="305.1428571428571" viewBox="0, 0, 400,305.1428571428571"><g id="svgg"><path id="path0" d="M195.905 86.129 C 168.204 88.918,154.088 117.972,170.449 138.524 C 186.584 158.792,221.177 155.809,232.843 133.142 C 244.883 109.750,224.094 83.291,195.905 86.129 M149.962 167.439 C 142.206 168.459,135.933 174.112,133.691 182.100 L 133.238 183.714 133.188 244.429 L 133.138 305.143 199.810 305.143 L 266.481 305.143 266.431 244.429 L 266.381 183.714 265.928 182.100 C 263.872 174.773,258.792 169.713,251.524 167.751 L 250.000 167.340 200.571 167.312 C 173.386 167.296,150.612 167.353,149.962 167.439 " stroke="none" fill="#fbfbfb" fill-rule="evenodd"></path><path id="path1" d="M49.924 90.748 C 22.466 129.974,0.000 162.166,0.000 162.286 C 0.000 162.405,22.466 194.597,49.924 233.823 L 99.847 305.143 116.493 305.143 L 133.139 305.143 133.189 244.143 L 133.238 183.143 133.680 181.619 C 135.666 174.764,140.848 169.617,147.619 167.774 L 149.238 167.333 199.810 167.333 L 250.381 167.333 252.000 167.774 C 258.771 169.617,263.953 174.764,265.939 181.619 L 266.381 183.143 266.430 244.143 L 266.480 305.143 283.316 305.143 L 300.153 305.143 350.076 233.823 C 377.534 194.597,400.000 162.405,400.000 162.286 C 400.000 162.166,377.534 129.974,350.076 90.748 L 300.153 19.429 200.000 19.429 L 99.847 19.429 49.924 90.748 M204.767 86.105 C 230.827 89.338,244.793 115.903,231.148 136.285 C 214.716 160.831,173.873 156.011,164.848 128.461 C 157.342 105.548,178.712 82.872,204.767 86.105 " stroke="none" fill="#2cacac" fill-rule="evenodd"></path><path id="path2" d="" stroke="none" fill="#7ec0bf" fill-rule="evenodd"></path><path id="path3" d="" stroke="none" fill="#add2d2" fill-rule="evenodd"></path><path id="path4" d="" stroke="none" fill="#45b4ae" fill-rule="evenodd"></path></g></svg>