<svg id="svg" version="1.1" xmlns="http://www.w3.org/2000/svg" xmlns:xlink="http://www.w3.org/1999/xlink" width="400" height="285.7142857142857" viewBox="0, 0, 400,285.7142857142857"><g id="svgg"><path id="path0" d="M97.661 50.476 C 86.481 60.637,77.334 69.015,77.334 69.094 C 77.335 69.173,86.380 77.459,97.435 87.506 C 108.490 97.554,117.511 105.839,117.482 105.917 C 117.453 105.995,108.419 114.317,97.408 124.411 C 86.396 134.504,77.387 142.848,77.388 142.952 C 77.389 143.057,86.398 151.402,97.409 161.497 C 108.420 171.591,117.453 179.914,117.482 179.990 C 117.511 180.067,108.455 188.384,97.357 198.471 L 77.179 216.813 97.583 235.359 L 117.986 253.906 118.850 253.075 C 119.325 252.618,128.243 244.506,138.667 235.049 C 149.090 225.591,157.865 217.618,158.165 217.330 L 158.710 216.806 138.736 198.660 C 127.750 188.680,118.695 180.456,118.613 180.384 C 118.503 180.289,153.033 148.686,158.120 144.226 L 158.811 143.620 178.962 161.934 L 199.113 180.249 198.461 180.828 C 186.485 191.476,158.887 216.870,159.087 217.055 C 163.854 221.464,199.338 253.574,199.520 253.644 C 199.710 253.717,233.761 223.062,240.061 217.146 C 240.355 216.869,209.137 188.001,200.640 180.692 L 200.126 180.250 220.275 161.934 L 240.425 143.618 241.117 144.225 C 246.333 148.793,280.745 180.279,280.631 180.378 C 280.546 180.453,271.488 188.680,260.502 198.660 L 240.528 216.806 241.073 217.330 C 241.374 217.617,248.733 224.311,257.429 232.204 C 266.124 240.097,275.049 248.203,277.262 250.217 L 281.286 253.878 301.672 235.345 L 322.058 216.812 301.880 198.471 C 290.783 188.383,281.727 180.070,281.756 179.996 C 281.785 179.922,290.852 171.569,301.905 161.435 C 312.957 151.300,321.983 142.969,321.963 142.921 C 321.943 142.873,312.900 134.557,301.868 124.440 C 290.836 114.324,281.785 105.986,281.756 105.911 C 281.727 105.836,290.748 97.554,301.803 87.506 C 312.858 77.459,321.903 69.174,321.904 69.097 C 321.904 69.019,312.767 60.648,301.600 50.494 L 281.295 32.034 267.743 44.343 C 260.289 51.114,251.362 59.219,247.905 62.355 C 244.448 65.491,241.374 68.291,241.073 68.577 L 240.528 69.099 260.502 87.243 C 271.488 97.223,280.588 105.491,280.726 105.617 C 280.926 105.800,277.381 109.140,262.821 122.485 C 252.836 131.637,243.746 139.974,242.620 141.011 C 241.494 142.049,240.465 142.854,240.334 142.799 C 240.094 142.699,202.590 108.360,200.908 106.700 L 200.006 105.810 220.206 87.448 C 236.432 72.699,240.357 69.041,240.155 68.857 C 227.604 57.379,199.766 32.190,199.632 32.190 C 199.490 32.190,181.386 48.564,158.990 68.947 C 158.906 69.024,167.927 77.346,179.038 87.440 C 190.148 97.535,199.232 105.840,199.224 105.897 C 199.216 105.954,192.656 112.000,184.646 119.333 C 176.636 126.667,167.621 134.922,164.613 137.679 C 161.604 140.436,159.035 142.738,158.904 142.795 C 158.772 142.852,157.750 142.054,156.618 141.010 C 155.493 139.971,146.402 131.634,136.417 122.484 C 121.853 109.137,118.312 105.801,118.512 105.617 C 118.650 105.491,127.750 97.223,138.736 87.243 L 158.710 69.099 158.165 68.575 C 157.865 68.287,149.090 60.313,138.667 50.856 C 128.243 41.399,119.326 33.287,118.852 32.831 L 117.989 32.002 97.661 50.476 " stroke="none" fill="#fbfbfb" fill-rule="evenodd"></path><path id="path1" d="" stroke="none" fill="#7bc0be" fill-rule="evenodd"></path><path id="path2" d="" stroke="none" fill="#b1d4d4" fill-rule="evenodd"></path><path id="path3" d="M49.924 71.320 C 22.466 110.546,0.000 142.737,0.000 142.857 C 0.000 142.977,22.466 175.169,49.924 214.395 L 99.847 285.714 200.000 285.714 L 300.153 285.714 350.076 214.395 C 377.534 175.169,400.000 142.977,400.000 142.857 C 400.000 142.737,377.534 110.546,350.076 71.320 L 300.153 -0.000 200.000 -0.000 L 99.847 0.000 49.924 71.320 M137.964 50.028 C 148.879 59.943,158.033 68.262,158.305 68.513 L 158.801 68.970 179.133 50.485 C 190.316 40.318,199.536 32.000,199.621 32.000 C 199.706 32.000,208.924 40.318,220.106 50.485 L 240.436 68.970 240.933 68.512 C 249.906 60.222,281.237 31.996,281.396 32.059 C 281.723 32.188,322.095 68.930,322.094 69.097 C 322.094 69.174,313.048 77.459,301.993 87.506 C 290.938 97.554,281.917 105.837,281.947 105.912 C 281.976 105.988,291.000 114.302,302.000 124.389 C 313.000 134.475,322.000 142.829,322.000 142.953 C 322.000 143.077,313.000 151.431,302.000 161.519 C 291.000 171.607,281.976 179.921,281.947 179.995 C 281.917 180.069,290.938 188.351,301.993 198.398 C 313.048 208.446,322.094 216.730,322.094 216.808 C 322.095 216.976,281.721 253.718,281.392 253.847 C 281.230 253.911,250.370 226.106,240.938 217.397 L 240.447 216.944 220.119 235.424 C 208.939 245.589,199.719 253.905,199.630 253.905 C 199.541 253.905,190.317 245.587,179.133 235.421 L 158.799 216.937 158.304 217.393 C 147.811 227.063,118.014 253.914,117.849 253.848 C 117.516 253.716,77.143 216.979,77.144 216.809 C 77.144 216.731,86.190 208.446,97.245 198.398 C 108.300 188.351,117.321 180.065,117.292 179.986 C 117.262 179.908,108.238 171.594,97.238 161.513 C 86.238 151.431,77.238 143.079,77.238 142.952 C 77.238 142.826,86.238 134.474,97.238 124.392 C 108.238 114.310,117.262 105.997,117.292 105.918 C 117.321 105.839,108.300 97.554,97.245 87.506 C 86.190 77.459,77.144 69.173,77.144 69.094 C 77.143 68.907,117.753 32.000,117.960 32.000 C 118.047 32.000,127.048 40.113,137.964 50.028 M139.429 86.809 C 128.795 96.488,119.725 104.730,119.272 105.124 L 118.448 105.841 136.605 122.482 C 146.591 131.634,155.664 139.955,156.767 140.972 L 158.772 142.820 164.333 137.744 C 180.314 123.155,199.020 105.988,199.033 105.897 C 199.044 105.821,168.775 78.239,159.728 70.081 L 158.762 69.209 139.429 86.809 M220.403 87.443 C 209.372 97.471,200.334 105.749,200.319 105.838 C 200.305 105.927,209.329 114.287,220.374 124.416 L 240.454 142.831 242.465 140.979 C 243.571 139.959,252.646 131.638,262.631 122.486 C 277.209 109.125,280.736 105.801,280.536 105.617 C 280.398 105.491,271.325 97.248,260.373 87.299 L 240.460 69.210 220.403 87.443 M138.690 162.039 C 127.670 172.057,118.721 180.312,118.803 180.384 C 118.885 180.456,127.915 188.657,138.870 198.609 L 158.787 216.703 178.679 198.624 C 189.620 188.680,198.645 180.473,198.734 180.386 C 198.860 180.263,159.727 144.442,158.922 143.945 C 158.815 143.879,149.711 152.021,138.690 162.039 M220.369 162.021 L 200.327 180.242 201.354 181.151 C 201.919 181.651,210.949 189.853,221.420 199.378 L 240.460 216.695 260.373 198.605 C 271.325 188.655,280.355 180.453,280.441 180.378 C 280.557 180.276,243.787 146.642,240.937 144.243 L 240.410 143.800 220.369 162.021 " stroke="none" fill="#2cacac" fill-rule="evenodd"></path><path id="path4" d="" stroke="none" fill="#4cb4b1" fill-rule="evenodd"></path></g></svg>