<svg id="svg" version="1.1" xmlns="http://www.w3.org/2000/svg" xmlns:xlink="http://www.w3.org/1999/xlink" width="400" height="285.7142857142857" viewBox="0, 0, 400,285.7142857142857"><g id="svgg"><path id="path0" d="M101.441 59.634 C 70.170 62.608,64.572 96.065,90.941 122.388 C 106.650 138.069,125.528 144.291,138.859 138.181 C 145.519 135.127,153.303 136.770,159.524 142.542 L 160.476 143.426 159.312 144.540 C 153.290 150.308,145.337 151.832,138.286 148.569 C 133.943 146.560,132.075 146.096,127.767 145.958 C 105.844 145.256,78.238 168.196,73.736 190.857 C 66.930 225.113,110.543 239.572,137.435 211.976 C 150.310 198.765,156.181 178.413,151.245 164.112 C 150.776 162.752,150.732 162.806,152.009 163.154 C 156.785 164.457,168.919 163.197,174.169 160.853 L 176.137 159.975 184.592 163.915 C 244.097 191.641,284.898 209.372,293.288 211.150 C 298.107 212.171,307.066 210.097,318.000 205.430 C 320.756 204.253,326.476 201.496,326.476 201.345 C 326.476 201.279,300.332 188.420,268.378 172.768 C 236.423 157.117,210.345 144.254,210.425 144.184 C 210.506 144.114,236.693 132.032,268.619 117.334 C 300.545 102.636,326.667 90.538,326.667 90.449 C 326.667 90.360,325.017 89.462,323.000 88.452 C 308.567 81.226,298.245 78.463,292.000 80.152 C 280.818 83.178,242.253 98.891,189.524 121.907 C 183.710 124.445,178.362 126.775,177.640 127.086 L 176.327 127.651 174.497 126.795 C 170.757 125.046,162.958 123.617,157.170 123.620 C 155.199 123.621,154.460 123.694,152.051 124.128 L 151.435 124.239 151.915 122.834 C 153.098 119.367,153.854 113.414,153.627 109.333 C 152.039 80.693,127.340 57.171,101.441 59.634 M110.895 69.998 C 118.767 71.038,125.495 74.229,131.386 79.716 C 148.035 95.227,148.889 123.584,132.846 128.229 C 118.485 132.387,89.928 114.357,83.539 97.098 C 78.454 83.360,86.317 71.871,102.190 69.844 C 103.720 69.649,108.950 69.742,110.895 69.998 M131.714 158.265 C 147.654 162.412,147.524 190.227,131.492 205.735 C 114.625 222.053,85.701 218.906,81.402 200.286 C 77.670 184.118,100.580 161.337,124.095 157.832 C 125.568 157.613,130.224 157.877,131.714 158.265 " stroke="none" fill="#fbfbfb" fill-rule="evenodd"></path><path id="path1" d="M50.000 71.258 C 22.552 110.451,0.095 142.670,0.095 142.857 C 0.095 143.044,22.552 175.264,50.000 214.456 L 99.905 285.714 200.095 285.714 L 300.286 285.714 350.095 214.619 C 393.353 152.876,399.905 143.436,399.905 142.857 C 399.905 142.278,393.350 132.835,350.095 71.095 L 300.286 -0.000 200.095 0.000 L 99.905 0.000 50.000 71.258 M110.419 59.720 C 131.548 62.458,149.421 80.968,153.268 104.095 C 154.118 109.206,153.684 117.259,152.301 122.014 L 151.688 124.124 152.844 123.833 C 157.274 122.721,169.943 124.388,174.507 126.682 C 176.397 127.632,175.923 127.710,180.521 125.693 C 236.749 101.019,280.387 83.153,292.190 79.974 C 297.538 78.534,305.993 80.480,318.095 85.937 C 321.172 87.325,327.048 90.302,327.048 90.473 C 327.048 90.527,300.816 102.652,268.756 117.418 L 210.464 144.264 216.708 147.327 C 220.142 149.012,246.328 161.831,274.898 175.814 C 303.468 189.797,326.847 201.289,326.850 201.352 C 326.854 201.415,325.636 202.048,324.143 202.759 C 309.059 209.943,298.369 212.696,292.155 210.996 C 281.729 208.145,240.987 190.340,182.410 163.037 C 176.780 160.413,176.103 160.142,175.648 160.329 C 175.370 160.443,174.442 160.848,173.584 161.228 C 169.099 163.219,156.645 164.492,152.382 163.395 C 150.887 163.011,150.984 162.907,151.449 164.389 C 156.667 181.004,148.669 203.610,133.143 216.133 C 110.618 234.301,78.751 227.787,73.503 203.942 C 68.997 183.469,88.952 156.501,115.048 147.795 C 123.872 144.851,131.114 145.024,138.095 148.346 C 145.211 151.731,151.968 150.549,159.015 144.685 L 160.410 143.524 159.329 142.534 C 152.997 136.742,145.440 135.294,138.382 138.520 C 117.803 147.926,82.048 124.161,75.042 96.421 C 69.362 73.933,86.100 56.569,110.419 59.720 M103.143 69.900 C 88.509 71.205,80.013 80.943,82.594 93.453 C 86.331 111.569,116.391 132.287,132.857 128.097 C 145.899 124.777,148.246 103.148,137.323 86.939 C 129.392 75.169,116.443 68.714,103.143 69.900 M122.095 158.280 C 107.452 160.957,90.027 173.531,83.813 185.905 C 74.607 204.236,90.504 220.029,113.442 215.338 C 130.319 211.887,143.434 195.462,143.427 177.785 C 143.422 163.298,135.295 155.867,122.095 158.280 " stroke="none" fill="#34acac" fill-rule="evenodd"></path><path id="path2" d="M81.514 68.333 L 80.857 69.048 81.571 68.391 C 81.964 68.030,82.286 67.709,82.286 67.677 C 82.286 67.531,82.125 67.668,81.514 68.333 M87.134 76.429 L 86.381 77.238 87.190 76.485 C 87.943 75.785,88.088 75.619,87.943 75.619 C 87.912 75.619,87.548 75.983,87.134 76.429 M73.966 87.810 C 73.966 88.490,74.000 88.769,74.043 88.429 C 74.085 88.088,74.085 87.531,74.043 87.190 C 74.000 86.850,73.966 87.129,73.966 87.810 M125.958 145.855 C 126.459 145.894,127.230 145.893,127.672 145.853 C 128.114 145.814,127.705 145.781,126.762 145.782 C 125.819 145.782,125.457 145.815,125.958 145.855 M89.043 164.238 L 87.714 165.619 89.095 164.291 C 90.378 163.057,90.563 162.857,90.423 162.857 C 90.394 162.857,89.773 163.479,89.043 164.238 M155.762 163.753 C 155.998 163.799,156.383 163.799,156.619 163.753 C 156.855 163.708,156.662 163.671,156.190 163.671 C 155.719 163.671,155.526 163.708,155.762 163.753 M158.336 163.756 C 158.625 163.800,159.054 163.798,159.288 163.753 C 159.523 163.708,159.286 163.672,158.762 163.674 C 158.238 163.675,158.046 163.712,158.336 163.756 M92.752 174.048 L 92.095 174.762 92.810 174.105 C 93.474 173.495,93.611 173.333,93.466 173.333 C 93.434 173.333,93.113 173.655,92.752 174.048 M90.466 176.333 L 89.810 177.048 90.524 176.391 C 91.189 175.780,91.326 175.619,91.180 175.619 C 91.148 175.619,90.827 175.940,90.466 176.333 M80.997 197.333 C 80.997 197.700,81.036 197.850,81.084 197.667 C 81.132 197.483,81.132 197.183,81.084 197.000 C 81.036 196.817,80.997 196.967,80.997 197.333 M136.952 212.476 C 136.172 213.262,135.576 213.905,135.629 213.905 C 135.681 213.905,136.362 213.262,137.143 212.476 C 137.923 211.690,138.519 211.048,138.467 211.048 C 138.414 211.048,137.733 211.690,136.952 212.476 " stroke="none" fill="#b0dfde" fill-rule="evenodd"></path><path id="path3" d="M136.190 72.250 C 136.190 72.283,136.469 72.561,136.810 72.869 L 137.429 73.429 136.869 72.810 C 136.348 72.232,136.190 72.103,136.190 72.250 M295.381 79.566 C 295.721 79.609,296.279 79.609,296.619 79.566 C 296.960 79.524,296.681 79.490,296.000 79.490 C 295.319 79.490,295.040 79.524,295.381 79.566 M132.095 80.571 C 132.504 80.990,132.882 81.333,132.934 81.333 C 132.987 81.333,132.695 80.990,132.286 80.571 C 131.877 80.152,131.499 79.810,131.446 79.810 C 131.394 79.810,131.686 80.152,132.095 80.571 M90.667 122.381 C 91.022 122.748,91.356 123.048,91.408 123.048 C 91.460 123.048,91.213 122.748,90.857 122.381 C 90.502 122.014,90.168 121.714,90.116 121.714 C 90.063 121.714,90.311 122.014,90.667 122.381 M156.429 123.567 C 156.821 123.608,157.464 123.608,157.857 123.567 C 158.250 123.526,157.929 123.493,157.143 123.493 C 156.357 123.493,156.036 123.526,156.429 123.567 M145.000 136.708 C 145.288 136.752,145.760 136.752,146.048 136.708 C 146.336 136.664,146.100 136.629,145.524 136.629 C 144.948 136.629,144.712 136.664,145.000 136.708 M143.473 176.381 C 143.473 176.748,143.512 176.898,143.560 176.714 C 143.608 176.531,143.608 176.231,143.560 176.048 C 143.512 175.864,143.473 176.014,143.473 176.381 M131.609 205.476 L 130.952 206.190 131.667 205.534 C 132.332 204.923,132.469 204.762,132.323 204.762 C 132.291 204.762,131.970 205.083,131.609 205.476 " stroke="none" fill="#81cccb" fill-rule="evenodd"></path><path id="path4" d="M144.235 109.905 C 144.235 110.271,144.274 110.421,144.322 110.238 C 144.370 110.055,144.370 109.755,144.322 109.571 C 144.274 109.388,144.235 109.538,144.235 109.905 M93.143 111.143 C 93.712 111.719,94.220 112.190,94.273 112.190 C 94.325 112.190,93.902 111.719,93.333 111.143 C 92.764 110.567,92.256 110.095,92.203 110.095 C 92.151 110.095,92.574 110.567,93.143 111.143 M88.952 120.631 C 88.952 120.664,89.231 120.942,89.571 121.250 L 90.190 121.810 89.631 121.190 C 89.110 120.613,88.952 120.484,88.952 120.631 M91.429 123.107 C 91.429 123.140,91.707 123.419,92.048 123.726 L 92.667 124.286 92.107 123.667 C 91.586 123.090,91.429 122.960,91.429 123.107 M126.432 157.852 C 126.774 157.895,127.289 157.894,127.575 157.850 C 127.861 157.807,127.581 157.772,126.952 157.773 C 126.324 157.774,126.090 157.810,126.432 157.852 M138.095 162.000 C 138.451 162.367,138.784 162.667,138.837 162.667 C 138.889 162.667,138.641 162.367,138.286 162.000 C 137.930 161.633,137.597 161.333,137.544 161.333 C 137.492 161.333,137.740 161.633,138.095 162.000 M143.486 177.905 C 143.486 178.481,143.521 178.717,143.565 178.429 C 143.609 178.140,143.609 177.669,143.565 177.381 C 143.521 177.093,143.486 177.329,143.486 177.905 M86.286 209.238 C 86.641 209.605,86.975 209.905,87.027 209.905 C 87.079 209.905,86.832 209.605,86.476 209.238 C 86.121 208.871,85.787 208.571,85.735 208.571 C 85.682 208.571,85.930 208.871,86.286 209.238 M295.476 211.565 C 295.764 211.609,296.236 211.609,296.524 211.565 C 296.812 211.521,296.576 211.486,296.000 211.486 C 295.424 211.486,295.188 211.521,295.476 211.565 " stroke="none" fill="#59bcbc" fill-rule="evenodd"></path></g></svg>