<svg id="svg" version="1.1" xmlns="http://www.w3.org/2000/svg" xmlns:xlink="http://www.w3.org/1999/xlink" width="400" height="304.98338870431894" viewBox="0, 0, 400,304.98338870431894"><g id="svgg"><path id="path0" d="M197.625 24.292 L 0.000 24.333 0.000 164.583 L 0.000 304.833 200.000 304.833 L 400.000 304.833 400.000 164.583 L 400.000 24.333 398.042 24.333 L 396.083 24.333 396.083 148.107 C 396.083 266.561,396.071 271.888,395.787 272.065 C 395.557 272.208,395.454 272.194,395.331 272.000 C 395.229 271.841,395.185 226.667,395.211 147.958 C 395.232 79.873,395.250 24.185,395.250 24.208 C 395.250 24.231,306.319 24.269,197.625 24.292 M329.080 26.756 C 334.285 28.269,335.323 35.431,330.786 38.529 C 329.052 39.713,329.582 39.684,310.777 39.628 L 294.083 39.579 293.042 39.191 C 287.543 37.141,287.626 28.951,293.167 26.863 C 294.409 26.394,327.497 26.296,329.080 26.756 M26.932 44.941 C 32.362 47.115,32.322 54.671,26.867 57.136 C 26.060 57.501,17.237 57.651,16.007 57.321 C 10.997 55.977,9.575 49.196,13.609 45.886 C 15.227 44.558,15.461 44.514,20.957 44.507 L 25.830 44.500 26.932 44.941 M329.735 63.493 C 334.538 65.477,335.086 72.347,330.667 75.162 C 329.146 76.131,328.588 76.196,322.292 76.137 L 316.583 76.083 315.528 75.532 C 310.143 72.721,310.934 64.583,316.730 63.154 C 318.185 62.796,328.711 63.070,329.735 63.493 M283.467 65.613 C 283.504 65.863,283.613 65.932,283.888 65.880 C 284.491 65.764,284.862 66.325,284.802 67.261 C 284.728 68.393,284.365 68.423,284.301 67.303 C 284.228 66.033,283.627 65.984,283.500 67.237 C 283.346 68.755,283.000 68.360,283.000 66.667 C 283.000 65.237,283.308 64.542,283.467 65.613 M291.833 66.681 C 291.833 67.817,291.781 68.177,291.625 68.126 C 291.412 68.055,291.232 65.837,291.404 65.391 C 291.651 64.745,291.833 65.292,291.833 66.681 M293.667 65.417 C 293.667 65.554,293.592 65.667,293.500 65.667 C 293.408 65.667,293.333 65.554,293.333 65.417 C 293.333 65.279,293.408 65.167,293.500 65.167 C 293.592 65.167,293.667 65.279,293.667 65.417 M282.590 65.783 C 282.791 66.090,282.824 66.253,282.692 66.297 C 282.457 66.375,282.433 67.833,282.667 67.833 C 282.758 67.833,282.833 67.914,282.833 68.012 C 282.833 68.721,282.079 68.008,282.031 67.253 C 282.002 66.797,281.890 66.360,281.781 66.282 C 281.630 66.175,281.633 66.121,281.792 66.057 C 281.906 66.010,282.000 65.828,282.000 65.653 C 282.000 65.202,282.244 65.256,282.590 65.783 M292.785 65.625 C 292.844 65.785,292.973 65.979,293.071 66.054 C 293.195 66.150,293.186 66.218,293.042 66.277 C 292.793 66.378,292.754 67.833,293.000 67.833 C 293.092 67.833,293.167 67.914,293.167 68.012 C 293.167 68.721,292.412 68.008,292.364 67.253 C 292.335 66.797,292.223 66.360,292.114 66.282 C 291.963 66.175,291.966 66.121,292.125 66.057 C 292.240 66.010,292.333 65.828,292.333 65.653 C 292.333 65.253,292.641 65.234,292.785 65.625 M300.000 65.677 C 300.000 65.865,300.075 65.973,300.167 65.917 C 300.258 65.860,300.333 65.931,300.333 66.073 C 300.333 66.216,300.258 66.333,300.167 66.333 C 300.075 66.333,300.000 66.671,300.000 67.083 C 300.000 67.496,300.075 67.833,300.167 67.833 C 300.258 67.833,300.333 67.908,300.333 68.000 C 300.333 68.092,300.183 68.167,300.000 68.167 C 299.708 68.167,299.667 68.056,299.667 67.264 C 299.667 66.767,299.590 66.336,299.497 66.304 C 299.387 66.268,299.401 66.086,299.538 65.792 C 299.790 65.251,300.000 65.198,300.000 65.677 M286.630 66.093 C 287.293 66.557,287.125 67.167,286.333 67.167 C 285.852 67.167,285.667 67.236,285.667 67.417 C 285.667 67.572,285.824 67.667,286.083 67.667 C 286.313 67.667,286.500 67.592,286.500 67.500 C 286.500 67.408,286.612 67.333,286.750 67.333 C 286.887 67.333,287.000 67.431,287.000 67.550 C 287.000 68.230,285.693 68.415,285.259 67.796 C 284.534 66.761,285.633 65.395,286.630 66.093 M295.408 65.985 C 295.462 66.074,295.715 66.057,296.014 65.944 C 296.461 65.775,296.557 65.792,296.763 66.074 C 297.033 66.442,297.090 68.167,296.833 68.167 C 296.742 68.167,296.666 67.848,296.664 67.458 C 296.660 66.227,295.864 65.835,295.808 67.036 C 295.763 68.009,295.751 68.055,295.541 68.125 C 295.394 68.174,295.333 67.951,295.333 67.357 C 295.333 66.896,295.255 66.471,295.159 66.412 C 294.820 66.203,294.500 66.701,294.500 67.437 C 294.500 67.838,294.425 68.167,294.333 68.167 C 293.940 68.167,294.141 66.028,294.542 65.951 C 295.195 65.825,295.311 65.830,295.408 65.985 M298.816 66.062 C 298.920 66.188,299.034 66.582,299.068 66.937 C 299.102 67.293,299.180 67.705,299.241 67.854 C 299.337 68.086,299.217 68.121,298.385 68.104 C 297.433 68.084,297.417 68.075,297.417 67.601 C 297.417 67.125,297.518 67.026,298.333 66.701 C 298.701 66.555,298.715 66.521,298.452 66.414 C 298.265 66.338,298.039 66.397,297.844 66.574 C 297.444 66.935,297.270 66.664,297.600 66.194 C 297.885 65.787,298.530 65.717,298.816 66.062 M302.042 66.042 C 302.746 66.579,302.596 67.167,301.754 67.167 C 301.203 67.167,300.992 67.228,301.041 67.375 C 301.137 67.666,301.851 67.742,302.014 67.478 C 302.088 67.358,302.206 67.317,302.277 67.388 C 302.511 67.622,302.057 68.083,301.541 68.134 C 300.604 68.228,300.186 67.110,300.845 66.272 C 301.222 65.794,301.618 65.717,302.042 66.042 M305.164 66.941 C 305.166 67.371,305.253 67.664,305.396 67.719 C 305.770 67.863,306.000 67.481,306.000 66.717 C 306.000 66.181,306.065 66.000,306.258 66.000 C 306.469 66.000,306.507 66.191,306.466 67.042 L 306.417 68.083 305.780 68.136 C 304.895 68.209,304.667 67.961,304.667 66.924 C 304.667 66.446,304.718 66.004,304.780 65.942 C 304.977 65.745,305.161 66.224,305.164 66.941 M308.133 66.033 C 308.497 66.397,308.397 66.943,308.029 66.609 C 307.689 66.302,307.333 66.245,307.333 66.498 C 307.333 66.588,307.596 66.772,307.917 66.906 C 308.910 67.321,308.575 68.243,307.469 68.136 C 306.942 68.086,306.491 67.333,306.988 67.333 C 307.086 67.333,307.167 67.408,307.167 67.500 C 307.167 67.592,307.354 67.667,307.583 67.667 C 308.173 67.667,308.100 67.410,307.458 67.227 C 306.866 67.058,306.650 66.505,307.008 66.074 C 307.250 65.782,307.860 65.760,308.133 66.033 M310.333 66.167 C 310.940 66.774,310.777 67.167,309.917 67.167 C 309.504 67.167,309.167 67.244,309.167 67.339 C 309.167 67.619,309.687 67.734,310.020 67.526 C 310.635 67.142,310.904 67.406,310.405 67.905 C 310.016 68.294,309.234 68.236,308.926 67.796 C 308.165 66.709,309.421 65.254,310.333 66.167 M312.000 66.043 C 312.000 66.159,311.850 66.347,311.667 66.461 C 311.412 66.620,311.333 66.850,311.333 67.432 C 311.333 67.968,311.271 68.174,311.125 68.125 C 310.679 67.976,310.860 66.114,311.333 65.982 C 311.953 65.810,312.000 65.814,312.000 66.043 M289.667 66.730 C 289.667 67.150,289.765 67.541,289.899 67.652 C 290.264 67.955,290.667 67.431,290.667 66.655 C 290.667 66.295,290.742 66.000,290.833 66.000 C 290.927 66.000,291.000 66.466,291.000 67.065 L 291.000 68.131 290.208 68.107 L 289.417 68.083 289.367 67.042 C 289.336 66.395,289.384 66.000,289.492 66.000 C 289.588 66.000,289.667 66.328,289.667 66.730 M293.667 67.083 C 293.667 67.694,293.594 68.167,293.500 68.167 C 293.406 68.167,293.333 67.694,293.333 67.083 C 293.333 66.472,293.406 66.000,293.500 66.000 C 293.594 66.000,293.667 66.472,293.667 67.083 M285.784 66.439 C 285.549 66.673,285.677 66.833,286.097 66.833 C 286.368 66.833,286.502 66.756,286.458 66.625 C 286.378 66.384,285.955 66.267,285.784 66.439 M301.208 66.442 C 300.818 66.603,300.998 66.833,301.514 66.833 C 301.851 66.833,302.004 66.762,301.958 66.625 C 301.882 66.395,301.530 66.309,301.208 66.442 M309.339 66.576 C 309.154 66.799,309.198 66.833,309.660 66.833 C 310.013 66.833,310.171 66.763,310.125 66.625 C 310.021 66.312,309.581 66.285,309.339 66.576 M297.938 67.358 C 297.696 67.499,297.675 67.569,297.846 67.675 C 298.089 67.825,298.667 67.580,298.667 67.327 C 298.667 67.117,298.329 67.131,297.938 67.358 M289.126 68.458 C 289.176 68.611,288.901 68.667,288.097 68.667 C 287.078 68.667,286.825 68.564,287.118 68.271 C 287.319 68.070,289.051 68.232,289.126 68.458 M304.500 68.417 C 304.500 68.611,304.278 68.667,303.500 68.667 C 302.722 68.667,302.500 68.611,302.500 68.417 C 302.500 68.222,302.722 68.167,303.500 68.167 C 304.278 68.167,304.500 68.222,304.500 68.417 M386.417 280.621 C 390.807 281.980,393.273 286.918,392.183 292.167 C 390.264 301.406,377.850 301.516,375.652 292.314 C 373.870 284.853,379.684 278.537,386.417 280.621 M9.333 291.250 C 9.333 293.194,9.272 294.333,9.167 294.333 C 9.062 294.333,9.000 293.194,9.000 291.250 C 9.000 289.306,9.062 288.167,9.167 288.167 C 9.272 288.167,9.333 289.306,9.333 291.250 M372.167 299.167 C 372.167 299.496,9.285 299.729,8.956 299.400 C 8.371 298.816,2.797 298.833,190.601 298.833 C 372.056 298.833,372.167 298.834,372.167 299.167 " stroke="none" fill="#d3cccc" fill-rule="evenodd"></path><path id="path1" d="M0.000 11.917 L 0.000 23.500 197.625 23.542 L 395.250 23.583 395.333 147.750 C 395.407 257.972,395.445 271.917,395.667 271.917 C 395.889 271.917,395.926 257.972,396.000 147.750 L 396.083 23.583 398.042 23.536 L 400.000 23.489 400.000 11.911 L 400.000 0.333 200.000 0.333 L 0.000 0.333 0.000 11.917 M37.833 8.056 C 37.833 9.210,37.928 9.434,38.292 9.132 C 38.423 9.023,38.930 8.930,39.418 8.925 C 40.990 8.910,41.500 9.832,41.486 12.667 C 41.477 14.556,41.435 14.667,40.739 14.667 L 40.167 14.667 40.167 12.533 C 40.167 10.177,40.100 10.000,39.209 10.000 C 38.117 10.000,37.833 10.573,37.833 12.774 L 37.833 14.667 37.250 14.667 L 36.667 14.667 36.667 10.833 L 36.667 7.000 37.250 7.000 L 37.833 7.000 37.833 8.056 M61.167 10.833 L 61.167 14.667 60.583 14.667 L 60.000 14.667 60.000 10.833 L 60.000 7.000 60.583 7.000 L 61.167 7.000 61.167 10.833 M66.333 7.583 C 66.333 8.337,65.419 8.484,65.237 7.759 C 65.098 7.205,65.262 7.000,65.843 7.000 C 66.292 7.000,66.333 7.049,66.333 7.583 M121.000 7.566 C 121.000 8.174,120.756 8.369,120.183 8.219 C 119.500 8.041,119.699 7.000,120.417 7.000 C 120.969 7.000,121.000 7.030,121.000 7.566 M35.014 7.500 C 35.098 7.500,35.167 7.837,35.167 8.250 C 35.167 8.939,35.201 9.000,35.583 9.000 C 35.935 9.000,36.000 9.078,36.000 9.500 C 36.000 9.922,35.935 10.000,35.583 10.000 L 35.167 10.000 35.167 11.815 C 35.167 13.613,35.171 13.632,35.583 13.735 C 36.621 13.996,35.887 14.981,34.828 14.749 C 34.108 14.591,34.000 14.244,34.000 12.090 C 34.000 10.183,33.995 10.156,33.583 10.000 C 33.025 9.788,32.995 9.048,33.542 8.970 C 33.848 8.926,33.927 8.794,33.971 8.252 C 34.027 7.564,34.256 7.278,34.639 7.418 C 34.761 7.463,34.929 7.500,35.014 7.500 M83.178 7.506 C 83.413 7.632,83.500 7.856,83.500 8.339 C 83.500 8.938,83.540 9.000,83.928 9.000 C 84.513 9.000,84.464 9.886,83.875 9.970 C 83.260 10.057,83.297 13.415,83.917 13.697 C 84.852 14.123,84.244 14.987,83.174 14.752 C 82.357 14.572,82.255 14.293,82.191 12.058 C 82.137 10.169,82.106 10.000,81.816 10.000 C 81.576 10.000,81.500 9.880,81.500 9.500 C 81.500 9.111,81.574 9.000,81.833 9.000 C 82.110 9.000,82.167 8.889,82.167 8.342 C 82.167 7.890,82.258 7.630,82.458 7.513 C 82.824 7.300,82.794 7.301,83.178 7.506 M63.699 8.208 C 63.741 8.797,63.813 8.926,64.125 8.970 C 64.414 9.011,64.500 9.132,64.500 9.500 C 64.500 9.868,64.414 9.989,64.125 10.030 C 63.500 10.119,63.456 13.428,64.077 13.664 C 65.022 14.023,64.435 14.991,63.427 14.738 C 62.649 14.542,62.500 14.107,62.500 12.031 C 62.500 10.276,62.475 10.129,62.167 10.048 C 61.935 9.988,61.833 9.821,61.833 9.500 C 61.833 9.179,61.935 9.012,62.167 8.952 C 62.432 8.882,62.500 8.724,62.500 8.182 C 62.500 7.095,63.620 7.120,63.699 8.208 M46.167 9.171 C 46.725 9.466,47.148 10.130,47.294 10.942 C 47.535 12.279,47.458 12.333,45.325 12.333 C 43.697 12.333,43.500 12.365,43.504 12.625 C 43.518 13.776,45.199 14.154,46.006 13.187 C 46.770 12.272,47.557 12.561,47.074 13.579 C 45.998 15.848,42.584 15.041,42.226 12.433 C 41.886 9.951,44.129 8.095,46.167 9.171 M71.318 9.257 C 71.515 9.445,71.636 9.438,72.068 9.211 C 74.138 8.127,75.066 9.046,75.137 12.253 L 75.191 14.667 74.596 14.667 L 74.000 14.667 74.000 12.761 C 74.000 10.473,73.863 10.000,73.203 10.000 C 72.218 10.000,72.092 10.266,72.000 12.528 L 71.917 14.583 71.333 14.583 L 70.750 14.583 70.667 12.434 C 70.577 10.109,70.464 9.846,69.651 10.053 C 68.952 10.230,68.767 10.763,68.696 12.801 L 68.630 14.685 68.107 14.634 L 67.583 14.583 67.583 11.833 L 67.583 9.083 68.052 9.030 C 68.309 9.000,68.615 9.055,68.731 9.151 C 68.854 9.253,69.005 9.264,69.096 9.177 C 69.485 8.802,70.894 8.853,71.318 9.257 M80.083 9.210 C 80.734 9.557,80.823 9.862,80.828 11.771 C 80.833 13.505,80.858 13.643,81.208 13.881 C 81.515 14.089,81.550 14.192,81.400 14.443 C 81.152 14.858,80.571 14.918,80.060 14.584 C 79.675 14.331,79.594 14.330,79.086 14.571 C 77.978 15.097,76.593 14.785,76.199 13.921 C 75.562 12.522,76.382 11.502,78.335 11.264 C 79.434 11.131,79.719 10.979,79.640 10.569 C 79.478 9.724,77.946 9.644,77.585 10.461 C 77.336 11.026,76.333 10.998,76.333 10.426 C 76.333 9.173,78.621 8.432,80.083 9.210 M88.667 9.171 C 89.240 9.473,89.648 10.130,89.805 11.000 C 90.033 12.266,89.966 12.314,87.861 12.370 C 85.859 12.423,85.599 12.614,86.414 13.430 C 86.987 14.002,87.883 13.885,88.500 13.156 C 89.304 12.206,90.077 12.604,89.483 13.661 C 88.529 15.359,85.936 15.266,85.042 13.503 C 83.689 10.833,86.179 7.857,88.667 9.171 M105.578 9.070 C 106.174 9.319,106.757 10.190,106.601 10.598 C 106.463 10.958,105.706 10.885,105.496 10.492 C 105.152 9.849,103.815 9.706,103.592 10.288 C 103.431 10.707,103.793 10.961,105.105 11.351 C 106.795 11.852,107.230 12.582,106.584 13.831 C 105.717 15.508,102.368 15.119,102.279 13.331 C 102.243 12.601,102.935 12.473,103.272 13.148 C 103.643 13.893,104.651 14.086,105.325 13.540 C 105.982 13.008,105.455 12.523,103.938 12.263 C 101.972 11.927,101.649 9.717,103.470 9.067 C 104.275 8.779,104.884 8.780,105.578 9.070 M111.500 9.322 C 112.345 9.923,112.918 11.579,112.469 12.121 C 112.346 12.269,111.745 12.333,110.480 12.333 C 108.863 12.333,108.667 12.365,108.670 12.625 C 108.685 13.781,110.353 14.170,111.159 13.205 C 111.986 12.213,112.845 12.653,112.180 13.728 C 111.109 15.462,108.398 15.174,107.590 13.240 C 106.459 10.533,109.260 7.727,111.500 9.322 M116.417 9.419 C 116.417 9.839,116.327 9.946,115.846 10.101 C 114.826 10.431,114.667 10.803,114.667 12.852 L 114.667 14.667 114.083 14.667 L 113.500 14.667 113.500 11.833 L 113.500 9.000 114.069 9.000 C 114.383 9.000,114.670 9.094,114.709 9.208 C 114.762 9.366,114.836 9.370,115.015 9.226 C 115.682 8.686,116.417 8.787,116.417 9.419 M125.710 9.009 C 126.744 9.296,126.886 9.690,126.902 12.304 L 126.917 14.583 126.292 14.635 L 125.667 14.687 125.667 12.666 C 125.667 10.371,125.548 10.000,124.817 10.000 C 123.633 10.000,123.333 10.614,123.333 13.035 L 123.333 14.688 122.792 14.636 L 122.250 14.583 122.204 11.792 L 122.159 9.000 122.732 9.000 C 123.047 9.000,123.331 9.073,123.361 9.162 C 123.395 9.259,123.683 9.229,124.083 9.086 C 124.899 8.795,124.932 8.793,125.710 9.009 M134.280 8.998 C 134.388 8.999,134.596 9.120,134.742 9.266 C 134.977 9.501,135.053 9.504,135.379 9.293 C 137.429 7.966,138.500 9.065,138.500 12.495 L 138.500 14.667 137.917 14.667 L 137.333 14.667 137.328 12.625 C 137.322 10.385,137.192 10.000,136.438 10.000 C 135.624 10.000,135.425 10.473,135.333 12.629 L 135.250 14.583 134.708 14.636 L 134.167 14.688 134.167 12.768 C 134.167 10.563,133.998 10.000,133.338 10.000 C 132.388 10.000,132.258 10.280,132.167 12.528 L 132.083 14.583 131.500 14.583 L 130.917 14.583 130.917 11.833 L 130.917 9.083 132.047 9.064 C 132.669 9.053,133.230 8.992,133.293 8.929 C 133.356 8.866,133.560 8.855,133.746 8.905 C 133.931 8.955,134.172 8.996,134.280 8.998 M153.634 9.444 C 153.680 9.915,153.630 9.981,153.151 10.087 C 152.069 10.324,151.833 10.820,151.833 12.858 L 151.833 14.667 151.250 14.667 L 150.667 14.667 150.667 11.833 L 150.667 9.000 151.240 9.000 C 151.556 9.000,151.862 9.079,151.922 9.175 C 151.990 9.286,152.100 9.292,152.223 9.193 C 152.855 8.681,153.573 8.809,153.634 9.444 M157.547 9.063 C 159.348 9.834,159.728 12.528,158.261 14.129 C 157.124 15.370,154.861 14.998,154.161 13.455 C 152.946 10.778,155.081 8.008,157.547 9.063 M163.604 9.177 C 165.540 10.114,165.442 13.965,163.465 14.654 C 161.276 15.417,159.751 14.288,159.750 11.904 C 159.750 9.412,161.513 8.164,163.604 9.177 M169.400 9.158 C 169.997 9.463,170.064 9.466,170.455 9.210 C 171.149 8.755,172.421 8.845,172.964 9.388 C 173.409 9.832,173.418 9.884,173.474 12.265 L 173.532 14.689 172.891 14.636 L 172.250 14.583 172.203 12.511 C 172.154 10.355,172.044 9.996,171.438 10.005 C 170.507 10.019,170.177 10.857,170.171 13.219 L 170.167 14.688 169.625 14.636 L 169.083 14.583 169.036 12.511 C 168.986 10.287,168.887 10.000,168.172 10.000 C 167.295 10.000,167.089 10.482,167.028 12.684 L 166.972 14.667 166.403 14.667 L 165.833 14.667 165.833 11.810 L 165.833 8.954 166.625 9.037 C 167.060 9.083,167.604 9.063,167.833 8.993 C 168.501 8.790,168.725 8.814,169.400 9.158 M55.333 11.133 C 55.333 13.518,55.394 13.667,56.357 13.667 C 57.321 13.667,57.499 13.279,57.503 11.171 C 57.505 9.184,57.589 8.951,58.268 9.028 L 58.750 9.083 58.750 11.833 L 58.750 14.583 58.271 14.638 C 58.008 14.668,57.720 14.620,57.631 14.531 C 57.526 14.426,57.313 14.451,57.026 14.600 C 55.100 15.605,54.167 14.509,54.167 11.242 L 54.167 9.000 54.750 9.000 L 55.333 9.000 55.333 11.133 M66.333 11.844 L 66.333 14.688 65.792 14.636 L 65.250 14.583 65.210 12.167 C 65.160 9.156,65.191 9.000,65.837 9.000 L 66.333 9.000 66.333 11.844 M97.669 10.875 C 97.672 13.198,97.819 13.563,98.780 13.634 C 99.665 13.699,100.000 13.276,100.001 12.088 C 100.004 9.807,100.180 9.000,100.671 9.000 C 101.249 9.000,101.266 9.092,101.257 12.167 L 101.250 14.583 100.771 14.638 C 100.508 14.668,100.216 14.616,100.122 14.522 C 100.004 14.404,99.792 14.433,99.448 14.610 C 98.704 14.995,97.534 14.823,97.047 14.257 C 96.689 13.841,96.667 13.674,96.667 11.407 L 96.667 9.000 97.167 9.000 L 97.667 9.000 97.669 10.875 M121.000 11.844 L 121.000 14.688 120.458 14.636 L 119.917 14.583 119.870 12.007 C 119.817 9.033,119.824 9.000,120.495 9.000 L 121.000 9.000 121.000 11.844 M140.971 10.880 C 141.670 13.048,141.743 13.043,142.487 10.780 L 143.072 9.000 143.619 9.000 C 144.335 9.000,144.328 9.098,143.433 11.562 C 141.571 16.696,141.142 17.332,139.826 16.914 C 139.306 16.749,139.439 15.937,140.000 15.859 C 141.165 15.698,141.179 15.036,140.078 11.985 C 138.980 8.943,138.983 8.964,139.779 9.032 L 140.391 9.083 140.971 10.880 M156.000 9.962 C 155.030 10.174,154.703 12.701,155.551 13.431 C 156.425 14.183,157.325 13.900,157.720 12.750 C 158.287 11.100,157.397 9.657,156.000 9.962 M161.593 10.189 C 160.328 11.184,160.847 13.833,162.307 13.833 C 162.951 13.833,163.400 13.410,163.665 12.550 C 164.214 10.771,162.842 9.207,161.593 10.189 M43.841 10.445 C 43.316 11.113,43.478 11.245,44.888 11.299 C 46.039 11.343,46.167 11.317,46.167 11.038 C 46.167 10.033,44.500 9.607,43.841 10.445 M86.341 10.445 C 85.827 11.098,85.983 11.244,87.247 11.300 C 88.540 11.357,88.796 11.220,88.472 10.645 C 88.008 9.819,86.914 9.717,86.341 10.445 M109.021 10.427 C 108.456 11.146,108.705 11.354,110.060 11.299 C 111.394 11.244,111.652 10.977,110.978 10.348 C 110.428 9.836,109.456 9.875,109.021 10.427 M79.083 12.167 C 78.900 12.245,78.515 12.315,78.229 12.322 C 77.618 12.335,77.286 12.666,77.362 13.182 C 77.552 14.464,79.667 13.678,79.667 12.325 C 79.667 11.971,79.588 11.950,79.083 12.167 M53.618 15.380 C 53.728 15.452,53.777 15.621,53.725 15.755 C 53.560 16.185,47.667 16.112,47.667 15.681 C 47.667 15.505,47.760 15.320,47.875 15.270 C 48.191 15.131,53.388 15.231,53.618 15.380 M95.646 15.271 C 96.007 15.343,96.167 15.471,96.167 15.688 C 96.167 15.981,95.989 16.000,93.167 16.000 C 90.321 16.000,90.167 15.984,90.167 15.681 C 90.167 15.505,90.260 15.323,90.375 15.277 C 90.680 15.154,95.036 15.149,95.646 15.271 M149.708 15.288 C 150.014 15.346,150.167 15.479,150.167 15.688 C 150.167 15.981,149.989 16.000,147.167 16.000 C 144.309 16.000,144.167 15.985,144.167 15.677 C 144.167 15.425,144.304 15.341,144.792 15.295 C 145.823 15.200,149.216 15.194,149.708 15.288 M381.205 280.740 C 380.631 280.941,380.072 281.195,379.964 281.303 C 379.855 281.411,379.679 281.500,379.573 281.500 C 379.466 281.500,378.967 281.894,378.462 282.375 C 374.092 286.548,374.616 294.033,379.499 297.166 C 385.843 301.237,393.588 295.374,392.146 287.593 C 391.940 286.483,391.869 286.269,391.340 285.167 C 390.703 283.842,390.534 283.599,389.612 282.692 C 388.699 281.793,388.398 281.580,387.333 281.078 C 385.524 280.226,383.059 280.090,381.205 280.740 M383.967 288.403 C 385.512 289.059,386.616 289.618,386.533 289.701 C 386.365 289.869,381.375 292.000,381.150 292.000 C 381.068 292.000,381.000 291.593,381.000 291.095 C 381.000 290.059,380.967 290.082,382.708 289.907 C 384.024 289.775,384.160 289.582,383.042 289.431 C 382.606 289.372,381.969 289.282,381.625 289.231 L 381.000 289.137 381.000 288.138 C 381.000 287.589,381.058 287.164,381.128 287.194 C 381.199 287.225,382.477 287.769,383.967 288.403 " stroke="none" fill="#4b84d7" fill-rule="evenodd"></path><path id="path2" d="M36.705 10.792 L 36.667 14.667 37.250 14.667 L 37.833 14.667 37.799 13.042 L 37.764 11.417 37.709 12.958 C 37.655 14.467,37.645 14.500,37.247 14.500 L 36.840 14.500 36.792 10.708 L 36.743 6.917 36.705 10.792 M37.724 8.250 C 37.724 8.983,37.754 9.263,37.789 8.871 C 37.824 8.479,37.824 7.879,37.788 7.537 C 37.752 7.196,37.723 7.517,37.724 8.250 M60.038 10.792 L 60.000 14.667 60.625 14.640 C 61.236 14.614,61.238 14.612,60.711 14.546 L 60.173 14.479 60.125 10.698 L 60.077 6.917 60.038 10.792 M119.875 7.583 C 119.877 7.950,119.911 8.080,119.951 7.873 C 119.991 7.666,119.990 7.366,119.948 7.206 C 119.906 7.047,119.874 7.217,119.875 7.583 M34.048 8.250 C 34.049 8.708,34.081 8.876,34.120 8.623 C 34.158 8.369,34.157 7.994,34.117 7.789 C 34.078 7.584,34.046 7.792,34.048 8.250 M35.048 8.250 C 35.049 8.708,35.081 8.876,35.120 8.623 C 35.158 8.369,35.157 7.994,35.117 7.789 C 35.078 7.584,35.046 7.792,35.048 8.250 M62.548 8.250 C 62.549 8.708,62.581 8.876,62.620 8.623 C 62.658 8.369,62.657 7.994,62.617 7.789 C 62.578 7.584,62.546 7.792,62.548 8.250 M63.548 8.250 C 63.549 8.708,63.581 8.876,63.620 8.623 C 63.658 8.369,63.657 7.994,63.617 7.789 C 63.578 7.584,63.546 7.792,63.548 8.250 M82.233 7.734 C 82.184 7.863,82.169 8.219,82.201 8.526 C 82.253 9.015,82.270 8.986,82.339 8.292 C 82.421 7.480,82.391 7.322,82.233 7.734 M83.379 8.333 C 83.379 8.746,83.411 8.915,83.451 8.708 C 83.491 8.502,83.491 8.165,83.451 7.958 C 83.411 7.752,83.379 7.921,83.379 8.333 M39.208 8.948 C 39.369 8.990,39.631 8.990,39.792 8.948 C 39.952 8.906,39.821 8.872,39.500 8.872 C 39.179 8.872,39.048 8.906,39.208 8.948 M104.294 8.951 C 104.501 8.991,104.801 8.990,104.960 8.948 C 105.120 8.906,104.950 8.874,104.583 8.875 C 104.217 8.877,104.086 8.911,104.294 8.951 M116.058 8.942 C 116.292 9.009,116.349 9.149,116.295 9.521 C 116.251 9.817,116.283 9.950,116.376 9.858 C 116.644 9.590,116.443 8.923,116.083 8.886 C 115.793 8.857,115.790 8.864,116.058 8.942 M153.199 8.937 C 153.354 8.983,153.511 9.222,153.547 9.469 C 153.608 9.874,153.613 9.869,153.599 9.418 C 153.587 9.048,153.498 8.911,153.250 8.886 C 153.009 8.862,152.995 8.876,153.199 8.937 M156.125 8.951 C 156.331 8.991,156.669 8.991,156.875 8.951 C 157.081 8.911,156.912 8.879,156.500 8.879 C 156.087 8.879,155.919 8.911,156.125 8.951 M161.958 8.951 C 162.165 8.991,162.502 8.991,162.708 8.951 C 162.915 8.911,162.746 8.879,162.333 8.879 C 161.921 8.879,161.752 8.911,161.958 8.951 M33.197 9.458 C 33.235 9.787,33.356 9.932,33.625 9.970 C 33.991 10.022,34.000 10.075,34.000 12.063 C 34.000 14.397,34.097 14.637,35.084 14.751 L 35.750 14.828 35.093 14.660 C 34.207 14.433,34.260 14.579,34.167 12.112 C 34.085 9.962,34.075 9.916,33.692 9.861 C 33.377 9.817,33.315 9.727,33.377 9.403 C 33.419 9.181,33.384 9.000,33.299 9.000 C 33.214 9.000,33.168 9.206,33.197 9.458 M35.833 9.405 C 35.833 9.693,35.725 9.831,35.458 9.882 C 35.137 9.944,35.149 9.958,35.542 9.977 C 35.945 9.997,36.000 9.940,36.000 9.500 C 36.000 9.225,35.962 9.000,35.917 9.000 C 35.871 9.000,35.833 9.182,35.833 9.405 M55.231 11.000 C 55.231 12.146,55.258 12.615,55.290 12.042 C 55.323 11.469,55.323 10.531,55.290 9.958 C 55.258 9.385,55.231 9.854,55.231 11.000 M58.633 11.747 L 58.682 14.478 58.216 14.546 C 57.762 14.613,57.762 14.614,58.250 14.599 L 58.750 14.583 58.796 11.929 C 58.821 10.470,58.784 9.217,58.713 9.146 C 58.642 9.074,58.606 10.245,58.633 11.747 M64.333 9.405 C 64.333 9.698,64.230 9.825,63.958 9.863 C 63.597 9.915,63.583 9.982,63.575 11.667 L 63.566 13.417 63.622 11.708 C 63.677 10.019,63.682 10.000,64.089 10.000 C 64.435 10.000,64.500 9.920,64.500 9.500 C 64.500 9.225,64.462 9.000,64.417 9.000 C 64.371 9.000,64.333 9.182,64.333 9.405 M65.542 9.115 C 65.702 9.157,65.965 9.157,66.125 9.115 C 66.285 9.073,66.154 9.039,65.833 9.039 C 65.512 9.039,65.381 9.073,65.542 9.115 M68.519 9.198 C 68.491 9.612,68.762 9.706,69.023 9.373 C 69.226 9.114,69.221 9.106,68.972 9.301 C 68.737 9.485,68.683 9.472,68.617 9.217 C 68.549 8.956,68.536 8.953,68.519 9.198 M74.514 9.436 C 74.736 9.722,74.950 9.926,74.991 9.890 C 75.032 9.853,74.851 9.619,74.589 9.370 L 74.112 8.917 74.514 9.436 M81.525 9.458 C 81.505 9.888,81.565 10.000,81.816 10.000 C 82.106 10.000,82.137 10.169,82.191 12.058 C 82.249 14.075,82.406 14.667,82.886 14.667 C 82.984 14.667,82.918 14.560,82.740 14.430 C 82.455 14.222,82.410 13.940,82.357 12.077 C 82.304 10.191,82.265 9.951,81.992 9.879 C 81.818 9.834,81.656 9.608,81.618 9.358 C 81.558 8.968,81.547 8.979,81.525 9.458 M84.186 9.363 C 84.172 9.692,84.068 9.824,83.792 9.863 C 83.403 9.919,83.100 13.332,83.452 13.686 C 83.524 13.759,83.560 12.959,83.532 11.909 C 83.482 10.067,83.492 10.000,83.828 10.000 C 84.215 10.000,84.403 9.678,84.283 9.218 C 84.231 9.016,84.199 9.064,84.186 9.363 M113.537 11.792 L 113.500 14.667 114.083 14.667 L 114.667 14.667 114.632 12.875 L 114.596 11.083 114.542 12.792 C 114.489 14.477,114.483 14.500,114.082 14.500 L 113.675 14.500 113.625 11.708 L 113.575 8.917 113.537 11.792 M114.452 9.333 C 114.564 9.763,114.708 9.754,115.099 9.292 L 115.417 8.917 115.042 9.234 C 114.710 9.515,114.667 9.520,114.667 9.276 C 114.667 9.124,114.599 9.000,114.516 9.000 C 114.433 9.000,114.404 9.150,114.452 9.333 M119.907 9.215 C 119.861 9.334,119.845 10.590,119.870 12.007 L 119.917 14.583 120.458 14.636 C 120.756 14.664,121.000 14.621,121.000 14.539 C 121.000 14.458,120.775 14.424,120.500 14.464 L 120.000 14.538 120.000 11.863 L 120.000 9.188 120.542 9.121 L 121.083 9.053 120.536 9.027 C 120.222 9.011,119.954 9.091,119.907 9.215 M122.244 11.792 L 122.250 14.583 122.792 14.636 L 123.333 14.688 123.298 12.969 L 123.264 11.250 123.209 12.875 C 123.156 14.472,123.147 14.500,122.748 14.500 L 122.341 14.500 122.289 11.750 L 122.238 9.000 122.244 11.792 M123.186 9.292 C 123.163 9.741,123.374 9.776,123.688 9.375 C 123.893 9.114,123.888 9.106,123.639 9.301 C 123.404 9.485,123.349 9.472,123.283 9.217 C 123.222 8.980,123.201 8.996,123.186 9.292 M130.907 9.215 C 130.861 9.334,130.845 10.590,130.870 12.007 L 130.917 14.583 131.500 14.583 L 132.083 14.583 132.094 13.208 L 132.105 11.832 132.046 13.166 L 131.987 14.500 131.485 14.500 L 130.984 14.500 131.034 11.750 C 131.083 9.039,131.070 8.790,130.907 9.215 M150.704 11.792 L 150.667 14.667 151.292 14.640 C 151.901 14.614,151.903 14.612,151.379 14.546 L 150.841 14.479 150.791 11.698 L 150.741 8.917 150.704 11.792 M165.871 11.792 L 165.833 14.667 166.417 14.667 L 167.000 14.667 166.965 12.875 L 166.930 11.083 166.876 12.792 C 166.822 14.477,166.816 14.500,166.415 14.500 L 166.008 14.500 165.958 11.708 L 165.908 8.917 165.871 11.792 M172.728 9.345 C 172.969 9.535,173.173 9.817,173.180 9.970 C 173.189 10.162,173.221 10.181,173.281 10.030 C 173.373 9.800,172.726 9.000,172.448 9.000 C 172.360 9.000,172.486 9.155,172.728 9.345 M80.296 9.543 C 80.633 9.903,80.667 10.105,80.667 11.793 C 80.667 12.813,80.723 13.682,80.792 13.725 C 80.989 13.847,80.847 10.125,80.640 9.717 C 80.537 9.516,80.334 9.305,80.189 9.250 C 80.013 9.182,80.048 9.280,80.296 9.543 M126.396 9.452 C 126.477 9.571,126.600 9.912,126.671 10.209 C 126.789 10.705,126.801 10.713,126.816 10.310 C 126.826 10.068,126.702 9.727,126.542 9.552 C 126.381 9.377,126.316 9.332,126.396 9.452 M169.708 9.420 C 169.995 9.733,170.005 9.733,170.292 9.420 C 170.569 9.117,170.569 9.112,170.292 9.321 C 170.050 9.503,169.950 9.503,169.708 9.321 C 169.431 9.112,169.431 9.117,169.708 9.420 M44.542 9.948 C 44.702 9.990,44.965 9.990,45.125 9.948 C 45.285 9.906,45.154 9.872,44.833 9.872 C 44.512 9.872,44.381 9.906,44.542 9.948 M62.120 9.942 C 62.473 10.018,62.492 10.114,62.544 11.969 L 62.599 13.917 62.591 11.917 L 62.583 9.917 62.167 9.889 C 61.809 9.866,61.803 9.873,62.120 9.942 M77.635 10.125 C 77.242 10.582,77.132 10.833,77.323 10.833 C 77.421 10.833,77.500 10.725,77.500 10.593 C 77.500 10.460,77.667 10.235,77.870 10.093 C 78.074 9.950,78.161 9.833,78.063 9.833 C 77.965 9.833,77.772 9.965,77.635 10.125 M79.296 10.093 C 79.500 10.235,79.673 10.479,79.680 10.634 C 79.689 10.823,79.722 10.844,79.780 10.699 C 79.876 10.459,79.387 9.833,79.104 9.833 C 79.006 9.833,79.093 9.950,79.296 10.093 M87.042 9.948 C 87.202 9.990,87.465 9.990,87.625 9.948 C 87.785 9.906,87.654 9.872,87.333 9.872 C 87.013 9.872,86.881 9.906,87.042 9.948 M103.505 10.078 C 103.393 10.212,103.340 10.418,103.388 10.536 C 103.443 10.674,103.478 10.649,103.487 10.467 C 103.494 10.311,103.631 10.107,103.792 10.013 C 103.952 9.920,103.999 9.841,103.895 9.838 C 103.792 9.836,103.616 9.943,103.505 10.078 M109.708 9.948 C 109.869 9.990,110.131 9.990,110.292 9.948 C 110.452 9.906,110.321 9.872,110.000 9.872 C 109.679 9.872,109.548 9.906,109.708 9.948 M139.429 10.167 C 139.490 10.396,139.610 10.696,139.695 10.833 C 139.802 11.007,139.815 10.956,139.738 10.667 C 139.676 10.438,139.557 10.137,139.472 10.000 C 139.365 9.826,139.351 9.877,139.429 10.167 M168.280 9.949 C 168.898 10.070,168.988 10.373,169.036 12.511 L 169.083 14.583 169.583 14.599 C 170.055 14.614,170.057 14.611,169.625 14.547 L 169.167 14.479 169.167 12.432 C 169.167 10.243,169.007 9.801,168.237 9.856 C 167.967 9.875,167.973 9.890,168.280 9.949 M171.446 9.949 C 172.065 10.070,172.154 10.373,172.203 12.511 L 172.250 14.583 172.875 14.635 L 173.500 14.687 173.464 12.468 L 173.428 10.250 173.375 12.375 L 173.323 14.500 172.828 14.500 L 172.333 14.500 172.333 12.442 C 172.333 10.242,172.175 9.801,171.404 9.856 C 171.133 9.875,171.140 9.890,171.446 9.949 M72.093 10.370 C 71.895 10.653,71.833 11.189,71.833 12.620 L 71.833 14.500 71.338 14.500 L 70.843 14.500 70.789 12.375 L 70.734 10.250 70.742 12.417 L 70.750 14.583 71.333 14.583 L 71.917 14.583 72.000 12.528 C 72.072 10.742,72.126 10.441,72.407 10.236 C 72.585 10.106,72.645 10.000,72.541 10.000 C 72.437 10.000,72.235 10.167,72.093 10.370 M84.908 10.578 C 84.027 12.687,85.275 14.863,87.333 14.807 L 88.250 14.783 87.250 14.679 C 85.205 14.467,84.223 12.616,85.075 10.578 C 85.208 10.260,85.279 10.000,85.233 10.000 C 85.187 10.000,85.041 10.260,84.908 10.578 M137.157 10.281 C 137.254 10.481,137.333 11.550,137.333 12.656 L 137.333 14.667 137.917 14.667 L 138.500 14.667 138.464 12.375 L 138.427 10.083 138.375 12.292 L 138.324 14.500 137.912 14.500 L 137.500 14.500 137.500 12.532 C 137.500 11.001,137.442 10.492,137.241 10.240 C 136.990 9.928,136.988 9.929,137.157 10.281 M167.259 10.324 C 167.098 10.502,167.005 10.745,167.053 10.865 C 167.120 11.033,167.143 11.029,167.154 10.846 C 167.161 10.716,167.291 10.472,167.442 10.305 C 167.594 10.137,167.681 10.000,167.635 10.000 C 167.589 10.000,167.420 10.146,167.259 10.324 M170.426 10.370 C 170.283 10.574,170.174 10.930,170.184 11.162 C 170.198 11.509,170.225 11.482,170.336 11.008 C 170.411 10.692,170.605 10.336,170.768 10.216 C 170.930 10.097,170.979 10.000,170.875 10.000 C 170.771 10.000,170.569 10.167,170.426 10.370 M35.074 11.903 C 35.082 13.374,35.131 13.736,35.333 13.791 C 35.512 13.839,35.526 13.818,35.381 13.715 C 35.252 13.623,35.158 12.944,35.122 11.827 L 35.064 10.083 35.074 11.903 M68.829 10.509 C 68.728 10.697,68.669 10.964,68.698 11.103 C 68.727 11.241,68.833 11.087,68.933 10.761 C 69.140 10.093,69.101 10.000,68.829 10.509 M75.000 12.323 L 75.000 14.479 74.458 14.546 C 73.925 14.612,73.926 14.614,74.542 14.640 L 75.167 14.667 75.167 12.417 C 75.167 11.179,75.129 10.167,75.083 10.167 C 75.037 10.167,75.000 11.137,75.000 12.323 M106.500 10.408 C 106.500 10.641,106.396 10.689,106.009 10.632 C 105.739 10.593,105.556 10.622,105.602 10.697 C 105.749 10.935,106.506 10.844,106.609 10.576 C 106.663 10.435,106.661 10.272,106.604 10.215 C 106.547 10.158,106.500 10.245,106.500 10.408 M123.495 10.509 C 123.394 10.698,123.336 10.926,123.367 11.016 C 123.397 11.107,123.508 10.953,123.613 10.674 C 123.832 10.094,123.766 10.002,123.495 10.509 M88.468 10.583 C 88.553 10.767,88.663 11.029,88.714 11.167 C 88.794 11.383,88.809 11.381,88.820 11.157 C 88.827 11.014,88.717 10.751,88.574 10.574 C 88.319 10.255,88.317 10.255,88.468 10.583 M125.634 12.525 L 125.685 14.686 126.301 14.635 L 126.917 14.583 126.926 12.750 L 126.935 10.917 126.879 12.708 L 126.822 14.500 126.328 14.500 L 125.833 14.500 125.833 12.510 C 125.833 11.415,125.777 10.485,125.708 10.442 C 125.640 10.399,125.606 11.337,125.634 12.525 M40.203 12.542 L 40.167 14.667 40.792 14.640 C 41.400 14.614,41.402 14.612,40.880 14.546 L 40.343 14.480 40.291 12.448 L 40.239 10.417 40.203 12.542 M134.202 12.719 L 134.167 14.688 134.708 14.636 L 135.250 14.583 135.259 12.750 L 135.269 10.917 135.212 12.708 C 135.156 14.480,135.151 14.500,134.750 14.500 C 134.347 14.500,134.344 14.486,134.291 12.625 L 134.238 10.750 134.202 12.719 M164.885 11.750 C 164.886 12.300,164.917 12.505,164.954 12.205 C 164.991 11.906,164.990 11.456,164.952 11.205 C 164.914 10.955,164.884 11.200,164.885 11.750 M159.048 11.750 C 159.049 12.208,159.081 12.376,159.120 12.123 C 159.158 11.869,159.157 11.494,159.117 11.289 C 159.078 11.084,159.046 11.292,159.048 11.750 M42.214 11.917 C 42.216 12.375,42.248 12.543,42.286 12.289 C 42.325 12.036,42.324 11.661,42.284 11.456 C 42.244 11.251,42.213 11.458,42.214 11.917 M107.372 12.000 C 107.372 12.321,107.406 12.452,107.448 12.292 C 107.490 12.131,107.490 11.869,107.448 11.708 C 107.406 11.548,107.372 11.679,107.372 12.000 M68.500 13.072 C 68.500 14.478,68.500 14.478,68.042 14.547 C 67.615 14.612,67.621 14.618,68.125 14.642 L 68.667 14.667 68.667 13.167 C 68.667 12.342,68.629 11.667,68.583 11.667 C 68.537 11.667,68.500 12.299,68.500 13.072 M76.345 12.106 C 75.773 12.833,76.037 14.302,76.786 14.564 C 77.051 14.656,77.054 14.645,76.819 14.459 C 76.109 13.898,75.966 12.801,76.512 12.106 C 76.702 11.864,76.820 11.667,76.774 11.667 C 76.728 11.667,76.535 11.864,76.345 12.106 M103.074 11.907 C 103.251 12.050,103.514 12.161,103.657 12.154 C 103.881 12.142,103.883 12.128,103.667 12.048 C 103.529 11.997,103.267 11.886,103.083 11.802 C 102.755 11.651,102.755 11.652,103.074 11.907 M79.573 12.391 C 79.568 12.680,79.506 13.067,79.437 13.250 C 79.360 13.452,79.411 13.419,79.566 13.167 C 79.839 12.722,79.915 12.070,79.708 11.942 C 79.640 11.900,79.579 12.102,79.573 12.391 M43.336 12.458 C 43.338 12.659,43.378 12.687,43.467 12.548 C 43.551 12.415,44.224 12.327,45.423 12.291 L 47.250 12.237 45.292 12.202 C 43.523 12.170,43.334 12.195,43.336 12.458 M87.048 12.290 C 87.578 12.323,88.403 12.323,88.881 12.289 C 89.359 12.256,88.925 12.229,87.917 12.229 C 86.908 12.229,86.517 12.257,87.048 12.290 M108.503 12.458 C 108.504 12.659,108.545 12.687,108.634 12.548 C 108.718 12.415,109.391 12.327,110.589 12.291 L 112.417 12.237 110.458 12.202 C 108.690 12.170,108.500 12.195,108.503 12.458 M140.262 12.500 C 140.324 12.729,140.443 13.029,140.528 13.167 C 140.635 13.340,140.649 13.290,140.571 13.000 C 140.510 12.771,140.390 12.471,140.305 12.333 C 140.198 12.160,140.185 12.210,140.262 12.500 M77.367 12.533 C 77.074 12.826,77.122 13.426,77.458 13.680 C 77.706 13.868,77.719 13.866,77.542 13.667 C 77.278 13.371,77.273 12.793,77.533 12.533 C 77.643 12.423,77.696 12.333,77.650 12.333 C 77.604 12.333,77.477 12.423,77.367 12.533 M104.833 12.452 C 104.971 12.503,105.233 12.614,105.417 12.698 C 105.745 12.849,105.745 12.848,105.426 12.593 C 105.249 12.450,104.986 12.339,104.843 12.346 C 104.619 12.358,104.617 12.372,104.833 12.452 M164.326 13.763 C 164.200 13.999,163.906 14.296,163.673 14.423 C 163.440 14.550,163.351 14.656,163.475 14.660 C 163.717 14.667,164.667 13.729,164.667 13.482 C 164.667 13.231,164.567 13.314,164.326 13.763 M158.039 14.172 C 157.740 14.444,157.557 14.667,157.633 14.667 C 157.709 14.667,157.987 14.442,158.250 14.167 C 158.863 13.527,158.744 13.530,158.039 14.172 M42.833 14.056 C 42.833 14.678,45.446 15.093,46.093 14.574 C 46.406 14.324,46.404 14.321,46.053 14.491 C 45.425 14.794,44.015 14.703,43.395 14.320 C 43.086 14.129,42.833 14.010,42.833 14.056 M102.959 14.458 C 103.184 14.673,103.544 14.826,103.801 14.816 C 104.218 14.800,104.211 14.790,103.702 14.669 C 103.400 14.598,103.021 14.437,102.860 14.311 C 102.699 14.186,102.744 14.252,102.959 14.458 M106.137 14.267 C 105.990 14.414,105.618 14.594,105.310 14.667 C 104.798 14.788,104.789 14.801,105.199 14.816 C 105.558 14.830,106.842 14.026,106.494 14.005 C 106.445 14.002,106.284 14.120,106.137 14.267 M111.417 14.333 C 111.142 14.515,110.992 14.663,111.083 14.662 C 111.250 14.659,112.157 14.010,112.000 14.005 C 111.954 14.003,111.692 14.151,111.417 14.333 M108.583 14.500 C 108.947 14.741,109.334 14.824,110.000 14.807 L 110.917 14.783 109.883 14.683 C 109.315 14.628,108.756 14.490,108.642 14.375 C 108.527 14.260,108.355 14.167,108.258 14.168 C 108.162 14.168,108.308 14.318,108.583 14.500 M65.542 14.615 C 65.702 14.657,65.965 14.657,66.125 14.615 C 66.285 14.573,66.154 14.539,65.833 14.539 C 65.512 14.539,65.381 14.573,65.542 14.615 M100.375 14.615 C 100.535 14.657,100.798 14.657,100.958 14.615 C 101.119 14.573,100.987 14.539,100.667 14.539 C 100.346 14.539,100.215 14.573,100.375 14.615 M55.625 14.784 C 55.831 14.824,56.169 14.824,56.375 14.784 C 56.581 14.745,56.413 14.712,56.000 14.712 C 55.587 14.712,55.419 14.745,55.625 14.784 M77.544 14.786 C 77.797 14.825,78.172 14.824,78.377 14.784 C 78.582 14.744,78.375 14.713,77.917 14.714 C 77.458 14.716,77.291 14.748,77.544 14.786 M98.125 14.784 C 98.331 14.824,98.669 14.824,98.875 14.784 C 99.081 14.745,98.912 14.712,98.500 14.712 C 98.087 14.712,97.919 14.745,98.125 14.784 M49.208 15.291 C 49.919 15.322,51.081 15.322,51.792 15.291 C 52.502 15.259,51.921 15.234,50.500 15.234 C 49.079 15.234,48.498 15.259,49.208 15.291 M91.708 15.291 C 92.419 15.322,93.581 15.322,94.292 15.291 C 95.002 15.259,94.421 15.234,93.000 15.234 C 91.579 15.234,90.998 15.259,91.708 15.291 M146.796 15.289 C 147.188 15.324,147.788 15.324,148.129 15.288 C 148.471 15.252,148.150 15.223,147.417 15.224 C 146.683 15.224,146.404 15.254,146.796 15.289 M90.186 15.625 L 90.167 16.000 93.208 15.962 L 96.250 15.925 93.303 15.875 C 90.677 15.831,90.348 15.794,90.281 15.538 C 90.225 15.326,90.200 15.349,90.186 15.625 M144.186 15.625 L 144.167 16.000 147.208 15.962 L 150.250 15.925 147.303 15.875 C 144.677 15.831,144.348 15.794,144.281 15.538 C 144.225 15.326,144.200 15.349,144.186 15.625 M140.575 15.653 C 140.488 15.736,140.229 15.830,140.000 15.861 C 139.688 15.903,139.570 16.030,139.531 16.369 C 139.470 16.903,139.991 17.124,140.671 16.853 C 141.038 16.706,141.009 16.692,140.417 16.719 C 139.841 16.746,139.743 16.699,139.697 16.375 C 139.654 16.074,139.724 16.000,140.051 16.000 C 140.276 16.000,140.553 15.887,140.667 15.750 C 140.893 15.477,140.829 15.408,140.575 15.653 M49.125 15.958 C 49.973 15.988,51.360 15.988,52.208 15.958 C 53.056 15.927,52.362 15.903,50.667 15.903 C 48.971 15.903,48.277 15.927,49.125 15.958 M395.250 148.333 C 395.250 216.304,395.269 244.110,395.292 210.125 C 395.315 176.140,395.315 120.527,395.292 86.542 C 395.269 52.556,395.250 80.362,395.250 148.333 M396.083 148.333 C 396.083 216.304,396.102 244.110,396.125 210.125 C 396.148 176.140,396.148 120.527,396.125 86.542 C 396.102 52.556,396.083 80.362,396.083 148.333 M293.167 26.863 C 287.626 28.951,287.543 37.141,293.042 39.191 L 294.083 39.579 310.777 39.628 C 329.582 39.684,329.052 39.713,330.786 38.529 C 335.323 35.431,334.285 28.269,329.080 26.756 C 327.497 26.296,294.409 26.394,293.167 26.863 M295.997 32.875 C 296.000 34.390,295.977 34.500,295.667 34.500 C 295.306 34.500,295.249 34.108,295.330 32.183 C 295.419 30.052,295.994 30.648,295.997 32.875 M310.500 31.645 C 310.500 32.040,310.562 32.083,311.118 32.083 C 311.874 32.083,312.161 32.528,312.164 33.708 C 312.166 34.390,312.120 34.500,311.833 34.500 C 311.540 34.500,311.500 34.389,311.500 33.578 C 311.500 32.909,311.431 32.630,311.248 32.559 C 310.793 32.385,310.500 32.827,310.500 33.687 C 310.500 34.310,310.440 34.500,310.242 34.500 C 310.023 34.500,309.988 34.221,310.012 32.662 C 310.034 31.119,310.076 30.855,310.269 31.016 C 310.396 31.121,310.500 31.405,310.500 31.645 M301.967 31.608 C 302.012 32.057,302.065 32.099,302.510 32.034 C 303.285 31.920,303.500 32.225,303.500 33.437 C 303.500 34.271,303.446 34.500,303.250 34.500 C 303.058 34.500,303.000 34.286,303.000 33.578 C 303.000 32.909,302.931 32.630,302.748 32.559 C 302.293 32.385,302.000 32.827,302.000 33.687 C 302.000 34.299,301.938 34.500,301.750 34.500 C 301.544 34.500,301.500 34.193,301.500 32.736 C 301.500 31.032,301.829 30.236,301.967 31.608 M319.300 31.613 C 319.344 32.048,319.407 32.106,319.756 32.040 C 319.979 31.997,320.294 32.020,320.456 32.091 C 320.617 32.161,320.862 32.210,321.000 32.198 C 321.165 32.184,321.180 32.208,321.042 32.269 C 320.802 32.375,320.759 33.101,320.984 33.240 C 321.204 33.376,320.822 34.500,320.555 34.500 C 320.402 34.500,320.333 34.255,320.331 33.708 C 320.326 32.102,319.460 32.043,319.366 33.642 C 319.296 34.846,318.667 34.943,318.667 33.750 C 318.667 33.127,318.614 33.000,318.354 33.000 C 318.182 33.000,317.947 32.887,317.833 32.750 C 317.325 32.138,316.625 32.994,316.987 33.787 C 317.201 34.259,317.395 34.265,317.814 33.816 C 318.123 33.484,318.500 33.499,318.500 33.843 C 318.500 34.153,317.825 34.667,317.417 34.667 C 316.468 34.667,315.921 33.065,316.609 32.305 C 317.094 31.769,318.097 31.918,318.459 32.579 C 318.609 32.854,318.639 32.780,318.639 32.128 C 318.639 30.932,319.190 30.504,319.300 31.613 M327.292 31.451 C 327.599 31.864,327.547 32.251,327.112 32.779 C 326.898 33.038,326.676 33.380,326.618 33.539 C 326.553 33.717,326.412 33.789,326.251 33.727 C 325.930 33.604,326.060 33.075,326.540 32.550 C 326.727 32.347,326.831 32.069,326.776 31.925 C 326.634 31.554,326.042 31.606,325.917 32.000 C 325.766 32.476,325.333 32.422,325.333 31.926 C 325.333 31.075,326.755 30.730,327.292 31.451 M304.500 31.417 C 304.500 31.554,304.387 31.667,304.250 31.667 C 304.112 31.667,304.000 31.554,304.000 31.417 C 304.000 31.279,304.112 31.167,304.250 31.167 C 304.387 31.167,304.500 31.279,304.500 31.417 M300.901 31.525 C 300.836 31.631,300.925 31.823,301.100 31.952 C 301.400 32.175,301.401 32.199,301.125 32.404 C 300.797 32.647,300.699 34.167,301.011 34.167 C 301.115 34.167,301.146 34.010,301.087 33.792 C 301.014 33.528,301.028 33.491,301.133 33.667 C 301.215 33.804,301.273 34.142,301.262 34.417 C 301.250 34.692,301.318 34.979,301.412 35.054 C 301.516 35.138,301.485 35.164,301.333 35.120 C 301.196 35.081,301.104 34.932,301.129 34.789 C 301.162 34.603,301.079 34.554,300.840 34.617 C 300.591 34.682,300.464 34.593,300.340 34.269 C 300.249 34.029,300.098 33.833,300.004 33.833 C 299.910 33.833,299.833 33.754,299.833 33.657 C 299.833 33.560,299.908 33.527,300.000 33.583 C 300.099 33.645,300.167 33.449,300.167 33.103 C 300.167 32.782,300.095 32.475,300.007 32.421 C 299.840 32.318,299.939 31.896,300.213 31.542 C 300.419 31.275,301.065 31.260,300.901 31.525 M309.333 31.677 C 309.333 31.865,309.408 31.973,309.500 31.917 C 309.592 31.860,309.667 31.968,309.667 32.157 C 309.667 32.346,309.592 32.500,309.500 32.500 C 309.408 32.500,309.333 32.833,309.333 33.240 C 309.333 33.647,309.408 34.027,309.500 34.083 C 309.592 34.140,309.667 34.286,309.667 34.407 C 309.667 34.671,308.894 34.856,308.878 34.597 C 308.835 33.868,308.651 32.610,308.568 32.476 C 308.418 32.233,308.839 31.333,309.104 31.333 C 309.230 31.333,309.333 31.488,309.333 31.677 M324.618 31.667 C 324.666 31.850,324.772 32.000,324.853 32.000 C 324.934 32.000,325.000 32.112,325.000 32.250 C 325.000 32.387,324.925 32.500,324.833 32.500 C 324.742 32.500,324.667 32.688,324.667 32.917 C 324.667 33.146,324.760 33.334,324.875 33.336 C 325.009 33.338,325.022 33.382,324.911 33.461 C 324.707 33.606,324.702 33.833,324.896 34.140 C 325.112 34.479,324.729 34.787,324.370 34.562 C 324.166 34.434,324.069 34.112,324.033 33.441 C 324.006 32.923,323.912 32.500,323.825 32.500 C 323.738 32.500,323.667 32.387,323.667 32.250 C 323.667 32.112,323.742 32.000,323.833 32.000 C 323.925 32.000,324.000 31.850,324.000 31.667 C 324.000 31.473,324.111 31.333,324.266 31.333 C 324.412 31.333,324.570 31.483,324.618 31.667 M306.203 32.026 C 306.652 32.056,306.835 32.154,306.899 32.401 C 307.021 32.865,306.922 32.911,306.333 32.667 C 305.821 32.455,305.469 32.546,305.761 32.816 C 305.847 32.895,306.187 33.046,306.518 33.152 C 307.565 33.486,307.064 34.667,305.875 34.667 C 305.473 34.667,305.348 34.726,305.434 34.875 C 305.503 34.996,305.490 35.025,305.402 34.944 C 305.318 34.868,305.244 34.756,305.236 34.694 C 305.228 34.633,305.171 34.452,305.111 34.292 C 304.845 33.591,304.847 33.516,305.133 33.621 C 305.289 33.678,305.477 33.824,305.550 33.946 C 305.707 34.206,306.268 34.240,306.418 33.999 C 306.475 33.906,306.179 33.684,305.761 33.505 C 305.252 33.287,305.000 33.077,305.000 32.872 C 305.000 32.458,305.390 31.656,305.503 31.838 C 305.553 31.919,305.868 32.003,306.203 32.026 M322.948 32.094 C 323.242 32.154,323.334 32.322,323.419 32.959 C 323.645 34.642,323.695 34.538,322.631 34.599 C 320.934 34.697,320.546 33.354,322.175 33.021 C 322.491 32.956,322.734 32.831,322.715 32.743 C 322.666 32.519,322.000 32.437,322.000 32.655 C 322.000 32.753,321.850 32.833,321.667 32.833 C 321.290 32.833,321.246 32.636,321.523 32.192 C 321.707 31.897,321.906 31.883,322.948 32.094 M298.240 32.263 C 298.385 32.408,298.460 32.596,298.408 32.680 C 298.281 32.886,297.833 32.876,297.833 32.667 C 297.833 32.458,297.220 32.446,297.092 32.652 C 297.040 32.736,297.317 32.911,297.707 33.040 C 298.893 33.434,298.688 34.667,297.438 34.667 C 296.836 34.667,296.500 34.416,296.500 33.967 C 296.500 33.604,296.926 33.566,297.060 33.917 C 297.166 34.193,297.758 34.257,297.911 34.008 C 298.031 33.815,297.494 33.510,296.958 33.465 C 296.513 33.428,296.339 32.645,296.683 32.230 C 296.942 31.918,297.915 31.939,298.240 32.263 M304.500 33.250 C 304.500 34.250,304.450 34.500,304.250 34.500 C 304.050 34.500,304.000 34.250,304.000 33.250 C 304.000 32.250,304.050 32.000,304.250 32.000 C 304.450 32.000,304.500 32.250,304.500 33.250 M314.383 32.208 C 314.536 32.323,314.710 32.660,314.769 32.958 L 314.875 33.500 314.021 33.500 C 313.365 33.500,313.167 33.559,313.167 33.755 C 313.167 34.138,313.639 34.244,313.978 33.937 C 314.577 33.394,314.934 33.761,314.391 34.362 C 313.708 35.116,312.500 34.482,312.500 33.370 C 312.500 32.198,313.522 31.567,314.383 32.208 M313.278 32.611 C 313.036 32.853,313.191 33.000,313.687 33.000 C 314.131 33.000,314.177 32.963,314.000 32.750 C 313.781 32.486,313.464 32.425,313.278 32.611 M321.908 33.681 C 321.750 33.937,322.059 34.197,322.376 34.076 C 322.522 34.020,322.682 33.868,322.732 33.737 C 322.842 33.451,322.082 33.399,321.908 33.681 M326.667 34.250 C 326.667 34.389,326.519 34.500,326.333 34.500 C 326.148 34.500,326.000 34.389,326.000 34.250 C 326.000 34.111,326.148 34.000,326.333 34.000 C 326.519 34.000,326.667 34.111,326.667 34.250 M15.417 44.824 C 14.682 45.172,14.704 45.278,15.447 44.975 C 15.706 44.870,16.217 44.730,16.583 44.663 L 17.250 44.542 16.667 44.525 C 16.346 44.516,15.783 44.651,15.417 44.824 M25.917 44.747 C 26.375 44.870,26.773 44.948,26.800 44.921 C 26.892 44.831,25.789 44.500,25.433 44.511 C 25.241 44.517,25.458 44.623,25.917 44.747 M27.260 45.245 C 27.438 45.379,27.643 45.492,27.715 45.495 C 28.012 45.507,28.891 46.295,29.482 47.080 C 32.187 50.673,30.526 55.847,26.270 57.085 C 24.862 57.494,16.398 57.388,15.417 56.949 C 13.371 56.034,12.159 54.637,11.575 52.519 C 11.393 51.858,11.361 51.820,11.350 52.250 C 11.305 54.038,13.767 56.720,16.007 57.321 C 17.237 57.651,26.060 57.501,26.867 57.136 C 31.916 54.855,32.422 47.709,27.707 45.271 C 27.055 44.934,26.831 44.921,27.260 45.245 M13.616 45.864 C 12.308 46.984,11.207 48.959,11.382 49.871 C 11.452 50.237,11.455 50.236,11.477 49.839 C 11.528 48.913,13.015 46.182,13.478 46.162 C 13.660 46.154,14.758 45.176,14.583 45.177 C 14.492 45.178,14.056 45.487,13.616 45.864 M17.252 49.330 C 17.153 49.490,17.431 50.167,17.595 50.167 C 17.641 50.167,17.601 50.022,17.506 49.844 C 17.250 49.366,17.290 49.286,17.745 49.373 C 17.971 49.416,18.117 49.388,18.068 49.309 C 17.948 49.114,17.376 49.129,17.252 49.330 M20.725 50.166 C 20.529 50.245,20.321 50.385,20.264 50.477 C 20.180 50.614,21.081 50.256,21.319 50.058 C 21.444 49.954,21.091 50.018,20.725 50.166 M22.977 50.343 L 22.583 50.686 23.042 50.407 C 23.478 50.142,23.634 50.142,24.417 50.409 C 24.640 50.486,24.613 50.439,24.333 50.267 C 23.767 49.920,23.441 49.938,22.977 50.343 M23.936 51.136 C 23.891 51.209,24.074 51.351,24.344 51.453 C 24.940 51.678,24.964 51.624,24.425 51.271 C 24.201 51.124,23.981 51.063,23.936 51.136 M19.205 52.000 C 19.205 52.321,19.240 52.452,19.282 52.292 C 19.323 52.131,19.323 51.869,19.282 51.708 C 19.240 51.548,19.205 51.679,19.205 52.000 M22.167 51.789 C 22.029 51.827,21.767 51.922,21.583 52.000 C 21.400 52.078,21.137 52.179,21.000 52.225 C 20.842 52.277,20.884 52.312,21.115 52.320 C 21.316 52.327,21.527 52.258,21.583 52.167 C 21.758 51.883,22.221 51.982,22.577 52.379 C 22.764 52.587,22.860 52.684,22.792 52.595 C 22.560 52.296,22.664 52.000,23.000 52.000 C 23.183 52.000,23.333 51.944,23.333 51.875 C 23.333 51.737,22.562 51.681,22.167 51.789 M316.730 63.154 C 310.934 64.583,310.143 72.721,315.528 75.532 L 316.583 76.083 322.292 76.137 C 328.588 76.196,329.146 76.131,330.667 75.162 C 335.086 72.347,334.538 65.477,329.735 63.493 C 328.711 63.070,318.185 62.796,316.730 63.154 M320.728 67.845 C 321.200 68.217,321.322 68.833,320.923 68.833 C 320.788 68.833,320.598 68.683,320.500 68.500 C 320.043 67.647,318.833 68.339,318.833 69.454 C 318.833 70.597,319.738 70.975,320.493 70.147 C 320.996 69.596,321.361 69.608,321.214 70.171 C 320.963 71.131,319.376 71.505,318.682 70.766 C 317.229 69.219,319.092 66.559,320.728 67.845 M327.333 69.323 C 327.333 70.791,327.185 71.408,326.901 71.124 C 326.569 70.791,326.750 67.667,327.102 67.667 C 327.284 67.667,327.333 68.020,327.333 69.323 M323.663 69.093 L 323.909 69.603 324.252 69.093 C 325.018 67.952,326.660 68.617,326.439 69.979 C 326.226 71.293,324.943 71.603,324.214 70.517 C 323.978 70.167,323.833 70.055,323.833 70.225 C 323.833 71.082,322.263 71.515,321.759 70.796 C 321.383 70.259,321.426 69.240,321.843 68.824 C 322.378 68.288,323.343 68.431,323.663 69.093 M322.153 69.454 C 321.859 70.226,322.256 70.814,322.903 70.566 C 323.522 70.328,323.165 69.000,322.482 69.000 C 322.396 69.000,322.247 69.204,322.153 69.454 M324.867 69.200 C 324.582 69.485,324.619 70.253,324.931 70.512 C 325.292 70.811,325.734 70.517,325.804 69.931 C 325.892 69.188,325.323 68.744,324.867 69.200 M381.000 288.167 C 381.000 289.013,381.045 289.165,381.292 289.154 C 381.466 289.146,381.499 289.107,381.375 289.056 C 381.248 289.005,381.167 288.652,381.167 288.148 L 381.167 287.325 381.658 287.579 C 382.371 287.948,382.524 287.878,381.833 287.500 C 381.009 287.049,381.000 287.057,381.000 288.167 M382.833 288.083 C 383.063 288.214,383.325 288.322,383.417 288.322 C 383.508 288.322,383.396 288.214,383.167 288.083 C 382.938 287.952,382.675 287.845,382.583 287.845 C 382.492 287.845,382.604 287.952,382.833 288.083 M384.083 288.595 C 384.358 288.727,384.994 289.011,385.496 289.228 L 386.408 289.621 385.746 289.970 C 385.381 290.162,385.143 290.322,385.215 290.326 C 385.407 290.337,386.710 289.655,386.637 289.581 C 386.532 289.477,383.811 288.333,383.694 288.344 C 383.633 288.350,383.808 288.463,384.083 288.595 M381.875 289.282 C 382.035 289.323,382.298 289.323,382.458 289.282 C 382.619 289.240,382.488 289.205,382.167 289.205 C 381.846 289.205,381.715 289.240,381.875 289.282 M383.208 289.448 C 383.369 289.490,383.631 289.490,383.792 289.448 C 383.952 289.406,383.821 289.372,383.500 289.372 C 383.179 289.372,383.048 289.406,383.208 289.448 M382.875 289.948 C 383.035 289.990,383.298 289.990,383.458 289.948 C 383.619 289.906,383.488 289.872,383.167 289.872 C 382.846 289.872,382.715 289.906,382.875 289.948 M381.627 290.118 C 381.834 290.158,382.134 290.156,382.294 290.115 C 382.453 290.073,382.283 290.040,381.917 290.042 C 381.550 290.044,381.420 290.078,381.627 290.118 M381.030 291.042 C 381.005 291.856,381.044 292.000,381.292 291.997 C 381.487 291.996,381.518 291.953,381.386 291.869 C 381.277 291.800,381.159 291.370,381.124 290.913 L 381.060 290.083 381.030 291.042 M384.333 290.583 C 384.104 290.714,383.992 290.822,384.083 290.822 C 384.175 290.822,384.438 290.714,384.667 290.583 C 384.896 290.452,385.008 290.345,384.917 290.345 C 384.825 290.345,384.563 290.452,384.333 290.583 " stroke="none" fill="#a9d6e3" fill-rule="evenodd"></path><path id="path3" d="M0.000 0.167 C 0.000 0.278,66.778 0.333,200.000 0.333 C 333.222 0.333,400.000 0.278,400.000 0.167 C 400.000 0.056,333.222 0.000,200.000 0.000 C 66.778 0.000,0.000 0.056,0.000 0.167 M67.568 11.833 C 67.568 13.346,67.593 13.965,67.624 13.208 C 67.655 12.452,67.655 11.215,67.624 10.458 C 67.593 9.702,67.568 10.321,67.568 11.833 M57.560 10.833 C 57.560 11.704,57.588 12.060,57.623 11.625 C 57.657 11.190,57.657 10.477,57.623 10.042 C 57.588 9.606,57.560 9.962,57.560 10.833 M65.209 9.917 C 65.211 10.283,65.245 10.414,65.285 10.206 C 65.324 9.999,65.323 9.699,65.281 9.540 C 65.239 9.380,65.207 9.550,65.209 9.917 M101.205 10.833 C 101.205 11.154,101.240 11.285,101.282 11.125 C 101.323 10.965,101.323 10.702,101.282 10.542 C 101.240 10.381,101.205 10.512,101.205 10.833 M100.048 11.250 C 100.049 11.708,100.081 11.876,100.120 11.623 C 100.158 11.369,100.157 10.994,100.117 10.789 C 100.078 10.584,100.046 10.792,100.048 11.250 M65.230 12.583 C 65.231 13.683,65.258 14.112,65.290 13.535 C 65.323 12.959,65.323 12.059,65.290 11.535 C 65.257 11.012,65.230 11.483,65.230 12.583 M41.375 11.417 C 41.377 11.783,41.411 11.914,41.451 11.706 C 41.491 11.499,41.490 11.199,41.448 11.040 C 41.406 10.880,41.374 11.050,41.375 11.417 M41.375 12.750 C 41.377 13.117,41.411 13.247,41.451 13.040 C 41.491 12.832,41.490 12.532,41.448 12.373 C 41.406 12.214,41.374 12.383,41.375 12.750 M101.205 13.333 C 101.205 13.654,101.240 13.785,101.282 13.625 C 101.323 13.465,101.323 13.202,101.282 13.042 C 101.240 12.881,101.205 13.012,101.205 13.333 M-0.000 23.917 L -0.000 24.333 197.625 24.292 C 395.125 24.250,395.250 24.250,395.250 23.917 C 395.250 23.584,395.125 23.583,197.625 23.542 L -0.000 23.500 -0.000 23.917 M396.111 23.611 C 395.557 24.166,395.996 24.333,398.000 24.333 L 400.000 24.333 400.000 23.917 L 400.000 23.500 398.111 23.500 C 397.072 23.500,396.172 23.550,396.111 23.611 M295.542 31.120 C 295.140 31.264,295.260 34.500,295.667 34.500 C 295.978 34.500,296.000 34.389,296.000 32.843 C 296.000 31.197,295.941 30.976,295.542 31.120 M301.500 32.736 C 301.500 34.193,301.544 34.500,301.750 34.500 C 301.938 34.500,302.000 34.299,302.000 33.687 C 302.000 32.827,302.293 32.385,302.748 32.559 C 302.931 32.630,303.000 32.909,303.000 33.578 C 303.000 34.286,303.058 34.500,303.250 34.500 C 303.446 34.500,303.500 34.271,303.500 33.437 C 303.500 32.225,303.285 31.920,302.510 32.034 C 302.065 32.099,302.012 32.057,301.967 31.608 C 301.829 30.236,301.500 31.032,301.500 32.736 M310.107 31.116 C 309.858 31.364,309.991 34.500,310.250 34.500 C 310.438 34.500,310.500 34.299,310.500 33.687 C 310.500 32.827,310.793 32.385,311.248 32.559 C 311.431 32.630,311.500 32.909,311.500 33.578 C 311.500 34.389,311.540 34.500,311.833 34.500 C 312.120 34.500,312.166 34.390,312.164 33.708 C 312.161 32.528,311.874 32.083,311.118 32.083 C 310.558 32.083,310.500 32.041,310.500 31.635 C 310.500 31.181,310.302 30.920,310.107 31.116 M318.781 31.108 C 318.463 31.426,318.661 34.500,319.000 34.500 C 319.288 34.500,319.333 34.389,319.333 33.687 C 319.333 32.827,319.626 32.385,320.081 32.559 C 320.264 32.630,320.333 32.909,320.333 33.578 C 320.333 34.286,320.391 34.500,320.583 34.500 C 320.779 34.500,320.833 34.271,320.833 33.437 C 320.833 32.225,320.618 31.920,319.843 32.034 C 319.398 32.099,319.345 32.057,319.300 31.608 C 319.251 31.118,319.007 30.882,318.781 31.108 M326.000 31.116 C 325.649 31.241,325.333 31.675,325.333 32.032 C 325.333 32.440,325.785 32.416,325.917 32.000 C 326.042 31.606,326.634 31.554,326.776 31.925 C 326.831 32.069,326.727 32.347,326.540 32.550 C 326.020 33.119,325.904 33.667,326.303 33.667 C 326.481 33.667,326.671 33.535,326.724 33.375 C 326.778 33.215,326.984 32.884,327.182 32.640 C 327.632 32.087,327.517 31.470,326.913 31.195 C 326.452 30.985,326.382 30.979,326.000 31.116 M304.000 31.417 C 304.000 31.554,304.112 31.667,304.250 31.667 C 304.387 31.667,304.500 31.554,304.500 31.417 C 304.500 31.279,304.387 31.167,304.250 31.167 C 304.112 31.167,304.000 31.279,304.000 31.417 M300.109 31.832 C 299.968 32.115,299.927 32.371,300.014 32.425 C 300.098 32.477,300.167 32.810,300.167 33.166 C 300.167 33.991,300.423 34.667,300.736 34.667 C 301.049 34.667,301.288 34.290,301.030 34.204 C 300.789 34.124,300.761 32.500,301.000 32.500 C 301.092 32.500,301.167 32.387,301.167 32.250 C 301.167 32.112,301.092 32.000,301.000 32.000 C 300.908 32.000,300.833 31.850,300.833 31.667 C 300.833 31.165,300.391 31.266,300.109 31.832 M308.833 31.653 C 308.833 31.828,308.740 32.004,308.625 32.042 C 308.459 32.098,308.459 32.195,308.621 32.514 C 308.734 32.736,308.847 33.292,308.871 33.750 C 308.916 34.573,309.667 35.213,309.667 34.428 C 309.667 34.284,309.592 34.167,309.500 34.167 C 309.408 34.167,309.333 33.792,309.333 33.333 C 309.333 32.875,309.408 32.500,309.500 32.500 C 309.592 32.500,309.667 32.387,309.667 32.250 C 309.667 32.112,309.592 32.000,309.500 32.000 C 309.408 32.000,309.333 31.850,309.333 31.667 C 309.333 31.481,309.222 31.333,309.083 31.333 C 308.946 31.333,308.833 31.477,308.833 31.653 M324.000 31.667 C 324.000 31.850,323.925 32.000,323.833 32.000 C 323.742 32.000,323.667 32.112,323.667 32.250 C 323.667 32.387,323.738 32.500,323.825 32.500 C 323.912 32.500,324.006 32.923,324.033 33.441 C 324.088 34.477,324.459 34.953,324.870 34.517 C 325.040 34.338,325.041 34.276,324.875 34.215 C 324.624 34.123,324.585 32.500,324.833 32.500 C 324.925 32.500,325.000 32.387,325.000 32.250 C 325.000 32.112,324.934 32.000,324.853 32.000 C 324.772 32.000,324.666 31.850,324.618 31.667 C 324.570 31.483,324.412 31.333,324.266 31.333 C 324.111 31.333,324.000 31.473,324.000 31.667 M296.674 32.241 C 296.275 32.722,296.534 33.234,297.299 33.477 C 298.043 33.712,298.158 34.044,297.528 34.137 C 297.314 34.168,297.124 34.083,297.065 33.928 C 296.927 33.569,296.500 33.598,296.500 33.967 C 296.500 34.416,296.836 34.667,297.438 34.667 C 298.688 34.667,298.893 33.434,297.707 33.040 C 297.317 32.911,297.040 32.736,297.092 32.652 C 297.220 32.446,297.833 32.458,297.833 32.667 C 297.833 32.876,298.281 32.886,298.408 32.680 C 298.730 32.159,297.088 31.743,296.674 32.241 M304.000 33.250 C 304.000 34.250,304.050 34.500,304.250 34.500 C 304.450 34.500,304.500 34.250,304.500 33.250 C 304.500 32.250,304.450 32.000,304.250 32.000 C 304.050 32.000,304.000 32.250,304.000 33.250 M305.200 32.200 C 304.748 32.652,304.968 33.165,305.761 33.505 C 306.179 33.684,306.475 33.906,306.418 33.999 C 306.259 34.255,305.668 34.199,305.560 33.917 C 305.426 33.566,305.000 33.604,305.000 33.967 C 305.000 34.608,305.923 34.898,306.678 34.494 C 307.198 34.216,307.111 33.365,306.542 33.160 C 305.455 32.768,305.382 32.716,305.730 32.575 C 305.908 32.502,306.178 32.531,306.353 32.640 C 306.969 33.025,307.237 32.761,306.738 32.262 C 306.429 31.953,305.485 31.915,305.200 32.200 M312.833 32.333 C 312.062 33.105,312.602 34.667,313.641 34.667 C 314.113 34.667,314.667 34.233,314.667 33.862 C 314.667 33.587,314.357 33.619,314.051 33.925 C 313.729 34.247,313.272 34.175,313.198 33.790 C 313.151 33.545,313.275 33.500,314.009 33.500 L 314.875 33.500 314.769 32.958 C 314.581 32.004,313.509 31.658,312.833 32.333 M316.593 32.370 C 315.971 33.258,316.477 34.667,317.417 34.667 C 317.825 34.667,318.500 34.153,318.500 33.843 C 318.500 33.487,318.094 33.462,317.866 33.805 C 317.363 34.563,316.640 33.864,316.986 32.954 C 317.177 32.450,317.517 32.369,317.833 32.750 C 318.097 33.067,318.500 33.074,318.500 32.762 C 318.500 32.001,317.059 31.705,316.593 32.370 M321.506 32.322 C 321.266 32.770,321.286 32.833,321.667 32.833 C 321.850 32.833,322.000 32.758,322.000 32.667 C 322.000 32.449,322.616 32.450,322.751 32.668 C 322.858 32.841,322.741 32.901,321.953 33.074 C 321.301 33.217,321.011 33.885,321.410 34.326 C 321.681 34.625,323.323 34.747,323.564 34.486 C 323.705 34.334,323.315 32.258,323.123 32.136 C 322.701 31.868,321.686 31.985,321.506 32.322 M313.903 32.601 C 314.338 32.768,314.201 33.000,313.667 33.000 C 313.189 33.000,313.039 32.850,313.278 32.611 C 313.415 32.473,313.564 32.471,313.903 32.601 M322.833 33.661 C 322.833 33.931,322.153 34.219,321.963 34.030 C 321.871 33.938,321.846 33.781,321.908 33.681 C 322.046 33.457,322.833 33.440,322.833 33.661 M326.000 34.250 C 326.000 34.389,326.148 34.500,326.333 34.500 C 326.519 34.500,326.667 34.389,326.667 34.250 C 326.667 34.111,326.519 34.000,326.333 34.000 C 326.148 34.000,326.000 34.111,326.000 34.250 M17.333 49.444 C 17.333 49.504,17.575 49.931,17.871 50.392 C 18.191 50.890,18.444 51.536,18.496 51.988 C 18.618 53.045,19.167 53.195,19.167 52.171 C 19.167 51.671,19.325 51.236,19.750 50.572 C 20.071 50.071,20.333 49.587,20.333 49.497 C 20.333 49.103,19.801 49.389,19.397 50.000 C 19.154 50.367,18.904 50.667,18.842 50.667 C 18.779 50.667,18.559 50.367,18.353 50.000 C 18.030 49.425,17.333 49.045,17.333 49.444 M23.205 50.341 C 22.385 50.667,22.546 51.429,23.501 51.750 C 23.810 51.854,24.090 52.019,24.122 52.116 C 24.223 52.419,23.634 52.522,23.338 52.254 C 22.981 51.932,22.667 51.928,22.667 52.246 C 22.667 52.990,24.302 53.181,24.677 52.480 C 24.956 51.960,24.717 51.568,23.986 51.349 C 23.615 51.238,23.340 51.062,23.375 50.959 C 23.476 50.655,23.776 50.633,24.052 50.909 C 24.371 51.228,24.667 51.242,24.667 50.937 C 24.667 50.449,23.811 50.100,23.205 50.341 M20.429 50.595 C 19.781 51.243,19.934 52.427,20.715 52.802 C 21.339 53.101,22.333 52.704,22.333 52.155 C 22.333 51.912,21.836 51.973,21.560 52.250 C 21.373 52.437,21.229 52.456,20.988 52.327 C 20.432 52.030,20.636 51.833,21.500 51.833 C 22.305 51.833,22.333 51.817,22.333 51.359 C 22.333 50.469,21.064 49.959,20.429 50.595 M21.667 51.101 C 21.667 51.248,21.483 51.333,21.167 51.333 C 20.616 51.333,20.510 51.104,20.948 50.859 C 21.295 50.665,21.667 50.790,21.667 51.101 M283.000 66.667 C 283.000 68.360,283.346 68.755,283.500 67.237 C 283.627 65.984,284.228 66.033,284.301 67.303 C 284.365 68.423,284.728 68.393,284.802 67.261 C 284.862 66.325,284.491 65.764,283.888 65.880 C 283.613 65.932,283.504 65.863,283.467 65.613 C 283.308 64.542,283.000 65.237,283.000 66.667 M291.404 65.391 C 291.232 65.837,291.412 68.055,291.625 68.126 C 291.781 68.177,291.833 67.817,291.833 66.681 C 291.833 65.292,291.651 64.745,291.404 65.391 M293.333 65.417 C 293.333 65.554,293.408 65.667,293.500 65.667 C 293.592 65.667,293.667 65.554,293.667 65.417 C 293.667 65.279,293.592 65.167,293.500 65.167 C 293.408 65.167,293.333 65.279,293.333 65.417 M282.000 65.653 C 282.000 65.828,281.906 66.010,281.792 66.057 C 281.633 66.121,281.630 66.175,281.781 66.282 C 281.890 66.360,282.002 66.797,282.031 67.253 C 282.079 68.008,282.833 68.721,282.833 68.012 C 282.833 67.914,282.758 67.833,282.667 67.833 C 282.433 67.833,282.457 66.375,282.692 66.297 C 282.824 66.253,282.791 66.090,282.590 65.783 C 282.244 65.256,282.000 65.202,282.000 65.653 M292.333 65.653 C 292.333 65.828,292.240 66.010,292.125 66.057 C 291.966 66.121,291.963 66.175,292.114 66.282 C 292.223 66.360,292.335 66.797,292.364 67.253 C 292.412 68.008,293.167 68.721,293.167 68.012 C 293.167 67.914,293.092 67.833,293.000 67.833 C 292.754 67.833,292.793 66.378,293.042 66.277 C 293.186 66.218,293.195 66.150,293.071 66.054 C 292.973 65.979,292.844 65.785,292.785 65.625 C 292.641 65.234,292.333 65.253,292.333 65.653 M299.538 65.792 C 299.401 66.086,299.387 66.268,299.497 66.304 C 299.590 66.336,299.667 66.767,299.667 67.264 C 299.667 68.056,299.708 68.167,300.000 68.167 C 300.183 68.167,300.333 68.092,300.333 68.000 C 300.333 67.908,300.258 67.833,300.167 67.833 C 300.075 67.833,300.000 67.496,300.000 67.083 C 300.000 66.671,300.075 66.333,300.167 66.333 C 300.258 66.333,300.333 66.216,300.333 66.073 C 300.333 65.931,300.258 65.860,300.167 65.917 C 300.075 65.973,300.000 65.865,300.000 65.677 C 300.000 65.198,299.790 65.251,299.538 65.792 M285.409 66.242 C 284.939 66.712,284.886 67.263,285.259 67.796 C 285.693 68.415,287.000 68.230,287.000 67.550 C 287.000 67.431,286.887 67.333,286.750 67.333 C 286.612 67.333,286.500 67.408,286.500 67.500 C 286.500 67.592,286.313 67.667,286.083 67.667 C 285.824 67.667,285.667 67.572,285.667 67.417 C 285.667 67.236,285.852 67.167,286.333 67.167 C 287.125 67.167,287.293 66.557,286.630 66.093 C 286.121 65.737,285.886 65.766,285.409 66.242 M294.542 65.951 C 294.141 66.028,293.940 68.167,294.333 68.167 C 294.425 68.167,294.500 67.838,294.500 67.437 C 294.500 66.701,294.820 66.203,295.159 66.412 C 295.255 66.471,295.333 66.896,295.333 67.357 C 295.333 67.951,295.394 68.174,295.541 68.125 C 295.751 68.055,295.763 68.009,295.808 67.036 C 295.864 65.835,296.660 66.227,296.664 67.458 C 296.666 67.848,296.742 68.167,296.833 68.167 C 297.090 68.167,297.033 66.442,296.763 66.074 C 296.557 65.792,296.461 65.775,296.014 65.944 C 295.715 66.057,295.462 66.074,295.408 65.985 C 295.311 65.830,295.195 65.825,294.542 65.951 M297.600 66.194 C 297.270 66.664,297.444 66.935,297.844 66.574 C 298.039 66.397,298.265 66.338,298.452 66.414 C 298.715 66.521,298.701 66.555,298.333 66.701 C 297.518 67.026,297.417 67.125,297.417 67.601 C 297.417 68.075,297.433 68.084,298.385 68.104 C 299.217 68.121,299.337 68.086,299.241 67.854 C 299.180 67.705,299.102 67.293,299.068 66.937 C 298.962 65.835,298.142 65.420,297.600 66.194 M300.845 66.272 C 300.186 67.110,300.604 68.228,301.541 68.134 C 302.057 68.083,302.511 67.622,302.277 67.388 C 302.206 67.317,302.088 67.358,302.014 67.478 C 301.851 67.742,301.137 67.666,301.041 67.375 C 300.992 67.228,301.203 67.167,301.754 67.167 C 302.523 67.167,302.534 67.159,302.426 66.708 C 302.203 65.787,301.401 65.566,300.845 66.272 M304.780 65.942 C 304.718 66.004,304.667 66.446,304.667 66.924 C 304.667 67.961,304.895 68.209,305.780 68.136 L 306.417 68.083 306.466 67.042 C 306.507 66.191,306.469 66.000,306.258 66.000 C 306.065 66.000,306.000 66.181,306.000 66.717 C 306.000 67.481,305.770 67.863,305.396 67.719 C 305.253 67.664,305.166 67.371,305.164 66.941 C 305.161 66.224,304.977 65.745,304.780 65.942 M307.008 66.074 C 306.650 66.505,306.866 67.058,307.458 67.227 C 308.100 67.410,308.173 67.667,307.583 67.667 C 307.354 67.667,307.167 67.592,307.167 67.500 C 307.167 67.408,307.086 67.333,306.988 67.333 C 306.491 67.333,306.942 68.086,307.469 68.136 C 308.575 68.243,308.910 67.321,307.917 66.906 C 307.596 66.772,307.333 66.588,307.333 66.498 C 307.333 66.245,307.689 66.302,308.029 66.609 C 308.314 66.867,308.333 66.864,308.333 66.559 C 308.333 65.892,307.432 65.562,307.008 66.074 M309.012 66.272 C 308.139 67.383,309.422 68.887,310.405 67.905 C 310.904 67.406,310.635 67.142,310.020 67.526 C 309.687 67.734,309.167 67.619,309.167 67.339 C 309.167 67.244,309.504 67.167,309.917 67.167 C 310.777 67.167,310.940 66.774,310.333 66.167 C 309.879 65.712,309.424 65.748,309.012 66.272 M311.333 65.982 C 310.860 66.114,310.679 67.976,311.125 68.125 C 311.271 68.174,311.333 67.968,311.333 67.432 C 311.333 66.850,311.412 66.620,311.667 66.461 C 311.850 66.347,312.000 66.159,312.000 66.043 C 312.000 65.814,311.953 65.810,311.333 65.982 M289.367 67.042 L 289.417 68.083 290.208 68.107 L 291.000 68.131 291.000 67.065 C 291.000 66.466,290.927 66.000,290.833 66.000 C 290.742 66.000,290.667 66.295,290.667 66.655 C 290.667 67.431,290.264 67.955,289.899 67.652 C 289.765 67.541,289.667 67.150,289.667 66.730 C 289.667 66.328,289.588 66.000,289.492 66.000 C 289.384 66.000,289.336 66.395,289.367 67.042 M293.333 67.083 C 293.333 67.694,293.406 68.167,293.500 68.167 C 293.594 68.167,293.667 67.694,293.667 67.083 C 293.667 66.472,293.594 66.000,293.500 66.000 C 293.406 66.000,293.333 66.472,293.333 67.083 M286.458 66.625 C 286.502 66.756,286.368 66.833,286.097 66.833 C 285.677 66.833,285.549 66.673,285.784 66.439 C 285.955 66.267,286.378 66.384,286.458 66.625 M301.958 66.625 C 302.004 66.762,301.851 66.833,301.514 66.833 C 300.998 66.833,300.818 66.603,301.208 66.442 C 301.530 66.309,301.882 66.395,301.958 66.625 M310.125 66.625 C 310.171 66.763,310.013 66.833,309.660 66.833 C 309.198 66.833,309.154 66.799,309.339 66.576 C 309.581 66.285,310.021 66.312,310.125 66.625 M298.667 67.327 C 298.667 67.580,298.089 67.825,297.846 67.675 C 297.675 67.569,297.696 67.499,297.938 67.358 C 298.329 67.131,298.667 67.117,298.667 67.327 M318.981 67.750 C 318.038 68.263,317.901 70.062,318.749 70.791 C 319.534 71.467,320.970 71.105,321.214 70.171 C 321.361 69.608,320.996 69.596,320.493 70.147 C 319.705 71.011,318.833 70.597,318.833 69.359 C 318.833 68.304,320.057 67.673,320.500 68.500 C 320.728 68.925,321.167 68.933,321.167 68.512 C 321.167 67.725,319.863 67.271,318.981 67.750 M326.805 68.875 C 326.731 70.494,326.810 71.202,327.053 71.122 C 327.370 71.016,327.418 67.667,327.102 67.667 C 326.917 67.667,326.847 67.953,326.805 68.875 M287.118 68.271 C 286.825 68.564,287.078 68.667,288.097 68.667 C 288.901 68.667,289.176 68.611,289.126 68.458 C 289.051 68.232,287.319 68.070,287.118 68.271 M302.500 68.417 C 302.500 68.611,302.722 68.667,303.500 68.667 C 304.278 68.667,304.500 68.611,304.500 68.417 C 304.500 68.222,304.278 68.167,303.500 68.167 C 302.722 68.167,302.500 68.222,302.500 68.417 M321.833 68.833 C 321.063 69.604,321.571 71.167,322.593 71.167 C 323.683 71.167,324.251 69.837,323.574 68.870 C 323.235 68.386,322.300 68.366,321.833 68.833 M324.345 68.939 C 323.640 69.836,324.172 71.167,325.236 71.167 C 325.894 71.167,326.313 70.753,326.439 69.979 C 326.645 68.709,325.122 67.952,324.345 68.939 M323.083 69.833 C 323.083 70.483,323.034 70.590,322.710 70.636 C 322.200 70.709,321.912 70.086,322.157 69.442 C 322.466 68.629,323.083 68.890,323.083 69.833 M325.658 69.240 C 325.926 69.563,325.816 70.342,325.472 70.557 C 325.090 70.796,324.667 70.423,324.667 69.846 C 324.667 69.102,325.249 68.747,325.658 69.240 M389.583 282.667 C 390.035 283.125,390.442 283.500,390.487 283.500 C 390.533 283.500,390.201 283.125,389.750 282.667 C 389.299 282.208,388.892 281.833,388.846 281.833 C 388.800 281.833,389.132 282.208,389.583 282.667 M376.198 285.258 C 375.997 285.671,375.838 286.101,375.843 286.213 C 375.848 286.325,376.037 286.011,376.262 285.516 C 376.759 284.420,376.708 284.209,376.198 285.258 M392.033 287.000 C 392.033 287.229,392.093 287.604,392.167 287.833 L 392.300 288.250 392.300 287.833 C 392.300 287.604,392.240 287.229,392.167 287.000 L 392.033 286.583 392.033 287.000 M375.440 287.625 C 373.893 296.986,383.705 303.013,389.940 296.530 C 391.217 295.202,392.780 291.558,392.284 291.062 C 392.231 291.009,392.139 291.255,392.079 291.608 C 391.971 292.250,391.777 292.758,391.107 294.164 C 390.910 294.575,390.262 295.402,389.667 296.002 C 383.994 301.711,375.095 297.112,375.554 288.708 C 375.652 286.923,375.615 286.569,375.440 287.625 M9.000 291.250 C 9.000 293.194,9.062 294.333,9.167 294.333 C 9.272 294.333,9.333 293.194,9.333 291.250 C 9.333 289.306,9.272 288.167,9.167 288.167 C 9.062 288.167,9.000 289.306,9.000 291.250 M392.381 289.583 C 392.382 290.042,392.415 290.209,392.453 289.956 C 392.491 289.703,392.490 289.328,392.451 289.123 C 392.411 288.918,392.380 289.125,392.381 289.583 M9.000 299.167 C 9.000 299.500,9.111 299.500,190.583 299.500 C 372.056 299.500,372.167 299.500,372.167 299.167 C 372.167 298.834,372.056 298.833,190.583 298.833 C 9.111 298.833,9.000 298.834,9.000 299.167 " stroke="none" fill="#8593a5" fill-rule="evenodd"></path><path id="path4" d="M36.833 10.750 L 36.833 14.500 37.229 14.500 C 37.615 14.500,37.626 14.459,37.707 12.708 C 37.803 10.637,37.873 10.407,38.512 10.077 C 39.903 9.358,40.333 9.931,40.333 12.500 L 40.333 14.500 40.833 14.500 L 41.333 14.500 41.332 12.625 C 41.331 9.318,40.281 8.136,38.333 9.250 C 37.690 9.618,37.667 9.583,37.667 8.250 C 37.667 7.028,37.657 7.000,37.250 7.000 L 36.833 7.000 36.833 10.750 M60.167 10.739 L 60.167 14.500 60.674 14.500 L 61.182 14.500 61.133 10.792 L 61.083 7.083 60.625 7.031 L 60.167 6.978 60.167 10.739 M65.333 7.583 C 65.333 8.146,65.366 8.185,65.792 8.136 C 66.178 8.092,66.250 8.005,66.250 7.583 C 66.250 7.162,66.178 7.075,65.792 7.031 C 65.366 6.982,65.333 7.021,65.333 7.583 M120.000 7.583 C 120.000 8.087,120.054 8.167,120.399 8.167 C 120.838 8.167,121.062 7.791,120.909 7.310 C 120.715 6.699,120.000 6.915,120.000 7.583 M34.167 8.238 C 34.167 8.877,34.116 8.984,33.792 9.030 C 33.254 9.106,33.177 9.788,33.698 9.862 C 34.073 9.915,34.086 9.974,34.167 12.112 C 34.260 14.580,34.227 14.495,35.153 14.619 C 35.796 14.706,35.833 14.687,35.833 14.284 C 35.833 13.968,35.736 13.843,35.458 13.803 C 35.094 13.752,35.083 13.694,35.083 11.833 C 35.083 9.973,35.094 9.915,35.458 9.863 C 36.027 9.783,35.990 9.000,35.417 9.000 C 35.034 9.000,35.000 8.939,35.000 8.250 C 35.000 7.561,34.966 7.500,34.583 7.500 C 34.202 7.500,34.167 7.562,34.167 8.238 M62.667 8.238 C 62.667 8.877,62.616 8.984,62.292 9.030 C 61.754 9.106,61.677 9.788,62.198 9.862 C 62.574 9.915,62.584 9.965,62.627 12.000 C 62.674 14.313,62.837 14.667,63.852 14.667 C 64.467 14.667,64.544 14.005,63.958 13.748 C 63.602 13.592,63.583 13.491,63.583 11.750 C 63.583 9.976,63.595 9.915,63.958 9.863 C 64.527 9.783,64.490 9.000,63.917 9.000 C 63.534 9.000,63.500 8.939,63.500 8.250 C 63.500 7.561,63.466 7.500,63.083 7.500 C 62.702 7.500,62.667 7.562,62.667 8.238 M82.444 7.611 C 82.383 7.672,82.333 8.010,82.333 8.361 C 82.333 8.889,82.275 9.000,82.000 9.000 C 81.549 9.000,81.534 9.760,81.982 9.877 C 82.267 9.951,82.304 10.167,82.357 12.077 C 82.424 14.441,82.533 14.667,83.615 14.667 C 84.303 14.667,84.460 13.898,83.792 13.803 C 83.428 13.752,83.417 13.694,83.417 11.833 C 83.417 9.973,83.428 9.915,83.792 9.863 C 84.361 9.783,84.323 9.000,83.750 9.000 C 83.367 9.000,83.333 8.939,83.333 8.250 C 83.333 7.519,82.870 7.186,82.444 7.611 M43.532 9.337 C 41.978 10.285,41.937 13.482,43.468 14.375 C 44.813 15.160,47.167 14.341,47.167 13.089 C 47.167 12.696,46.380 12.767,46.159 13.181 C 45.631 14.168,43.996 14.096,43.565 13.066 C 43.189 12.165,43.186 12.167,45.333 12.167 L 47.333 12.167 47.333 11.553 C 47.333 9.544,45.216 8.311,43.532 9.337 M54.278 9.111 C 54.040 9.349,54.158 13.334,54.418 13.837 C 54.886 14.740,56.369 14.996,57.228 14.321 C 57.592 14.035,57.667 14.021,57.667 14.238 C 57.667 14.418,57.823 14.500,58.171 14.500 L 58.675 14.500 58.629 11.792 L 58.583 9.083 58.167 9.083 C 57.751 9.083,57.750 9.090,57.664 11.000 C 57.572 13.053,57.392 13.604,56.762 13.762 C 55.466 14.087,55.172 13.569,55.169 10.958 C 55.167 8.981,54.920 8.469,54.278 9.111 M67.667 11.750 L 67.667 14.500 68.083 14.500 C 68.491 14.500,68.500 14.473,68.507 13.208 C 68.521 10.851,68.797 10.141,69.798 9.890 C 70.634 9.680,70.833 10.170,70.833 12.442 L 70.833 14.500 71.333 14.500 L 71.833 14.500 71.833 12.620 C 71.833 10.524,71.988 10.102,72.824 9.919 C 73.881 9.687,74.000 9.932,74.000 12.339 L 74.000 14.500 74.500 14.500 L 75.000 14.500 75.000 12.263 C 75.000 10.099,74.986 10.009,74.569 9.513 C 74.022 8.863,72.822 8.782,72.106 9.345 L 71.667 9.691 71.228 9.345 C 70.646 8.888,69.682 8.892,69.095 9.354 L 68.646 9.707 68.554 9.354 C 68.492 9.118,68.329 9.000,68.064 9.000 L 67.667 9.000 67.667 11.750 M77.500 9.109 C 76.964 9.324,76.500 9.905,76.500 10.362 C 76.500 11.003,76.990 10.988,77.474 10.333 C 78.153 9.414,80.073 9.815,79.757 10.810 C 79.650 11.149,79.431 11.222,77.931 11.420 C 76.198 11.650,75.532 13.465,76.819 14.453 C 77.243 14.779,78.674 14.711,79.288 14.337 C 79.824 14.011,79.827 14.011,80.002 14.338 C 80.254 14.807,81.333 14.808,81.333 14.339 C 81.333 14.159,81.183 13.931,81.000 13.833 C 80.697 13.671,80.667 13.484,80.667 11.773 C 80.667 9.975,80.648 9.874,80.245 9.495 C 79.818 9.095,78.129 8.857,77.500 9.109 M86.032 9.328 C 84.495 10.292,84.460 13.620,85.979 14.406 C 87.422 15.152,89.667 14.302,89.667 13.008 C 89.667 12.657,88.871 12.834,88.602 13.245 C 88.050 14.088,86.659 14.101,86.151 13.269 C 85.514 12.224,85.601 12.167,87.833 12.167 L 89.833 12.167 89.832 11.708 C 89.828 9.576,87.731 8.262,86.032 9.328 M96.731 9.239 C 96.394 10.117,96.758 13.869,97.218 14.265 C 97.837 14.797,99.087 14.825,99.728 14.321 C 100.092 14.035,100.167 14.021,100.167 14.238 C 100.167 14.418,100.323 14.500,100.671 14.500 L 101.175 14.500 101.129 11.792 L 101.083 9.083 100.643 9.032 L 100.202 8.981 100.143 10.977 C 100.074 13.278,99.799 13.833,98.730 13.833 C 97.826 13.833,97.667 13.417,97.667 11.046 L 97.667 9.000 97.245 9.000 C 97.013 9.000,96.782 9.107,96.731 9.239 M103.185 9.233 C 102.458 9.635,102.129 10.640,102.498 11.330 C 102.665 11.641,103.502 12.008,104.789 12.333 C 105.764 12.579,105.984 13.031,105.411 13.604 C 104.762 14.253,103.167 13.865,103.167 13.058 C 103.167 12.918,102.971 12.833,102.649 12.833 C 102.167 12.833,102.138 12.866,102.242 13.292 C 102.704 15.189,106.050 15.287,106.665 13.421 C 107.021 12.342,106.471 11.753,104.722 11.342 C 103.136 10.970,102.857 9.973,104.308 9.865 C 104.872 9.824,105.070 9.892,105.393 10.240 C 105.884 10.770,106.500 10.814,106.500 10.321 C 106.500 9.262,104.385 8.567,103.185 9.233 M108.715 9.327 C 107.145 10.284,107.061 13.392,108.579 14.331 C 109.911 15.154,112.305 14.384,112.328 13.125 C 112.336 12.670,111.590 12.755,111.268 13.245 C 110.670 14.158,109.143 14.051,108.732 13.066 C 108.355 12.165,108.351 12.167,110.523 12.167 L 112.546 12.167 112.447 11.330 C 112.211 9.336,110.344 8.334,108.715 9.327 M113.667 11.750 L 113.667 14.500 114.069 14.500 C 114.465 14.500,114.471 14.477,114.527 12.684 C 114.590 10.665,114.765 10.279,115.736 10.030 C 116.484 9.837,116.593 9.000,115.870 9.000 C 115.597 9.000,115.253 9.145,115.083 9.333 C 114.917 9.517,114.727 9.667,114.660 9.667 C 114.594 9.667,114.500 9.517,114.452 9.333 C 114.400 9.134,114.224 9.000,114.016 9.000 C 113.676 9.000,113.667 9.070,113.667 11.750 M122.333 11.750 L 122.333 14.500 122.750 14.500 C 123.163 14.500,123.167 14.486,123.168 13.042 C 123.169 11.145,123.377 10.406,123.999 10.084 C 125.388 9.366,125.833 9.960,125.833 12.531 L 125.833 14.500 126.333 14.500 L 126.833 14.500 126.829 12.708 C 126.823 9.669,126.494 9.000,125.004 9.000 C 124.464 9.000,124.077 9.106,123.788 9.333 C 123.555 9.517,123.320 9.667,123.265 9.667 C 123.211 9.667,123.167 9.517,123.167 9.333 C 123.167 9.089,123.056 9.000,122.750 9.000 L 122.333 9.000 122.333 11.750 M131.111 9.111 C 131.050 9.172,131.000 10.410,131.000 11.861 L 131.000 14.500 131.500 14.500 L 132.000 14.500 132.000 12.758 C 132.000 10.797,132.162 10.278,132.862 9.988 C 134.016 9.510,134.333 10.129,134.333 12.854 C 134.333 14.499,134.334 14.500,134.750 14.500 C 135.166 14.500,135.167 14.498,135.167 12.858 C 135.167 10.964,135.349 10.289,135.933 10.023 C 137.162 9.463,137.500 9.996,137.500 12.500 L 137.500 14.500 137.917 14.500 L 138.333 14.500 138.333 12.159 C 138.333 9.059,137.451 8.167,135.540 9.332 C 134.998 9.663,134.996 9.663,134.665 9.332 C 134.249 8.916,133.072 8.884,132.516 9.274 C 132.152 9.529,132.113 9.529,131.970 9.274 C 131.816 8.999,131.318 8.904,131.111 9.111 M139.291 9.115 C 139.250 9.189,139.658 10.477,140.196 11.978 L 141.176 14.705 140.880 15.311 C 140.662 15.756,140.461 15.931,140.125 15.969 C 139.629 16.026,139.464 16.599,139.896 16.765 C 141.015 17.195,141.585 16.388,143.104 12.224 C 144.318 8.898,144.297 9.000,143.770 9.000 C 143.209 9.000,143.090 9.202,142.413 11.299 C 141.672 13.595,141.727 13.601,140.917 11.123 C 140.265 9.128,139.680 8.407,139.291 9.115 M150.833 11.750 L 150.833 14.500 151.333 14.500 L 151.833 14.500 151.833 12.659 C 151.833 10.642,152.141 10.000,153.108 10.000 C 153.432 10.000,153.500 9.914,153.500 9.500 C 153.500 8.879,152.746 8.785,152.241 9.343 L 151.931 9.686 151.804 9.343 C 151.722 9.120,151.529 9.000,151.255 9.000 L 150.833 9.000 150.833 11.750 M155.070 9.314 C 152.509 10.876,154.092 15.159,157.045 14.658 C 160.070 14.145,159.575 9.001,156.500 9.001 C 155.896 9.001,155.408 9.108,155.070 9.314 M160.840 9.437 C 158.793 11.159,159.712 14.690,162.208 14.690 C 164.335 14.690,165.524 12.477,164.593 10.248 C 164.068 8.992,161.921 8.527,160.840 9.437 M166.000 11.750 L 166.000 14.500 166.399 14.500 C 166.792 14.500,166.798 14.476,166.858 12.600 C 166.924 10.498,167.090 10.116,168.028 9.910 C 168.990 9.699,169.167 10.092,169.167 12.442 L 169.167 14.500 169.667 14.500 L 170.167 14.500 170.167 12.620 C 170.167 10.513,170.320 10.103,171.178 9.914 C 172.159 9.699,172.333 10.080,172.333 12.442 L 172.333 14.500 172.846 14.500 L 173.359 14.500 173.304 12.152 C 173.250 9.814,173.248 9.802,172.782 9.402 C 172.172 8.877,171.068 8.851,170.439 9.345 L 170.000 9.691 169.561 9.345 C 168.980 8.888,168.016 8.892,167.429 9.354 L 166.979 9.707 166.887 9.354 C 166.825 9.118,166.662 9.000,166.397 9.000 L 166.000 9.000 166.000 11.750 M65.333 11.833 L 65.333 14.500 65.833 14.500 L 66.333 14.500 66.333 11.833 L 66.333 9.167 65.833 9.167 L 65.333 9.167 65.333 11.833 M120.000 11.844 L 120.000 14.522 120.458 14.469 L 120.917 14.417 120.963 11.792 L 121.008 9.167 120.504 9.167 L 120.000 9.167 120.000 11.844 M45.727 10.208 C 46.705 11.098,46.522 11.333,44.853 11.333 L 43.351 11.333 43.526 10.831 C 43.873 9.834,44.974 9.523,45.727 10.208 M88.346 10.321 C 89.202 11.176,89.043 11.333,87.322 11.333 C 85.834 11.333,85.813 11.328,85.919 10.958 C 86.239 9.846,87.532 9.506,88.346 10.321 M110.894 10.208 C 111.859 11.086,111.683 11.333,110.095 11.333 C 108.767 11.333,108.667 11.309,108.667 10.992 C 108.667 10.018,110.121 9.506,110.894 10.208 M157.490 10.240 C 158.320 11.123,158.019 13.411,157.018 13.826 C 155.675 14.382,154.705 13.041,155.065 11.123 C 155.301 9.864,156.669 9.366,157.490 10.240 M163.076 9.937 C 164.171 10.357,164.030 13.410,162.896 13.841 C 161.648 14.316,160.779 13.401,160.874 11.714 C 160.961 10.164,161.833 9.460,163.076 9.937 M79.833 12.335 C 79.833 13.412,78.420 14.313,77.587 13.768 C 76.660 13.160,77.132 12.399,78.629 12.086 C 79.704 11.862,79.833 11.888,79.833 12.335 M47.667 15.583 C 47.667 15.796,48.111 15.833,50.667 15.833 C 53.222 15.833,53.667 15.796,53.667 15.583 C 53.667 15.370,53.222 15.333,50.667 15.333 C 48.111 15.333,47.667 15.370,47.667 15.583 M90.333 15.583 C 90.333 15.796,90.769 15.833,93.250 15.833 C 95.731 15.833,96.167 15.796,96.167 15.583 C 96.167 15.371,95.731 15.333,93.250 15.333 C 90.769 15.333,90.333 15.371,90.333 15.583 M144.333 15.583 C 144.333 15.796,144.769 15.833,147.250 15.833 C 149.731 15.833,150.167 15.796,150.167 15.583 C 150.167 15.371,149.731 15.333,147.250 15.333 C 144.769 15.333,144.333 15.371,144.333 15.583 M16.750 44.617 C 10.420 45.470,9.467 54.289,15.417 56.949 C 16.398 57.388,24.862 57.494,26.270 57.085 C 32.499 55.274,32.215 46.398,25.875 44.746 C 24.980 44.513,18.231 44.418,16.750 44.617 M18.370 49.832 C 18.835 50.646,18.951 50.658,19.256 49.929 C 19.507 49.327,20.079 49.012,20.378 49.311 C 20.503 49.436,20.378 49.754,19.953 50.395 C 19.514 51.056,19.340 51.511,19.311 52.068 C 19.256 53.115,18.500 53.257,18.500 52.220 C 18.500 51.784,18.303 51.304,17.819 50.561 C 17.444 49.986,17.186 49.437,17.245 49.341 C 17.483 48.956,17.998 49.181,18.370 49.832 M21.766 50.269 C 22.078 50.417,22.333 50.650,22.333 50.787 C 22.333 50.945,22.508 50.848,22.817 50.518 C 23.336 49.962,23.646 49.890,24.219 50.192 C 24.862 50.530,25.070 51.163,24.542 51.172 C 24.264 51.177,24.264 51.185,24.542 51.347 C 24.957 51.589,24.936 52.600,24.511 52.827 C 23.956 53.124,23.180 53.029,22.764 52.613 C 22.398 52.247,22.366 52.242,22.189 52.526 C 21.960 52.894,21.314 53.073,20.739 52.929 C 19.739 52.678,19.687 50.711,20.667 50.215 C 21.184 49.954,21.094 49.950,21.766 50.269 M20.917 51.000 C 20.857 51.096,21.012 51.166,21.282 51.164 C 21.645 51.162,21.694 51.125,21.500 51.000 C 21.180 50.793,21.045 50.793,20.917 51.000 M22.500 51.422 C 22.500 51.562,22.616 51.722,22.757 51.776 C 23.134 51.920,23.154 51.791,22.806 51.458 C 22.547 51.212,22.500 51.206,22.500 51.422 M20.833 52.000 C 20.833 52.092,20.979 52.167,21.157 52.167 C 21.335 52.167,21.527 52.092,21.583 52.000 C 21.642 51.905,21.502 51.833,21.260 51.833 C 21.025 51.833,20.833 51.908,20.833 52.000 M23.370 52.026 C 23.456 52.285,23.829 52.331,23.842 52.083 C 23.847 51.992,23.726 51.891,23.573 51.859 C 23.399 51.823,23.323 51.886,23.370 52.026 M381.167 288.180 C 381.167 288.888,381.215 289.004,381.542 289.076 C 381.953 289.167,384.425 289.500,384.689 289.500 C 385.494 289.500,384.305 289.846,382.917 290.016 L 381.167 290.229 381.167 291.031 C 381.167 291.472,381.229 291.833,381.305 291.833 C 381.501 291.833,386.048 289.852,386.200 289.700 C 386.269 289.631,385.165 289.078,383.746 288.471 L 381.167 287.367 381.167 288.180 " stroke="none" fill="#ebf8fb" fill-rule="evenodd"></path></g></svg>